<svg xmlns="http://www.w3.org/2000/svg" viewBox="0 0 200 240">
  <!-- Crown -->
  <rect x="43" y="0" width="18" height="14" rx="3" fill="#D4AF37"/>
  <rect x="91" y="0" width="18" height="14" rx="3" fill="#D4AF37"/>
  <rect x="139" y="0" width="18" height="14" rx="3" fill="#D4AF37"/>
  <rect x="38" y="10" width="124" height="12" rx="2" fill="#D4AF37"/>
  <!-- Shield: azure field -->
  <path d="M20,20 H180 V170 Q180,210 100,232 Q20,210 20,170 Z" fill="#003082" stroke="#5C3800" stroke-width="2.5"/>
  <!-- Castle: central keep -->
  <rect x="70" y="72" width="60" height="96" rx="3" fill="#D4AF37"/>
  <!-- Keep battlements -->
  <rect x="64" y="56" width="14" height="18" rx="2" fill="#D4AF37"/>
  <rect x="82" y="56" width="14" height="18" rx="2" fill="#D4AF37"/>
  <rect x="100" y="56" width="14" height="18" rx="2" fill="#D4AF37"/>
  <rect x="118" y="56" width="14" height="18" rx="2" fill="#D4AF37"/>
  <!-- Gate -->
  <path d="M86,168 L86,128 Q100,110 114,128 L114,168 Z" fill="#003082"/>
  <!-- Flanking towers (smaller) -->
  <rect x="38" y="98" width="34" height="70" rx="3" fill="#D4AF37"/>
  <rect x="128" y="98" width="34" height="70" rx="3" fill="#D4AF37"/>
  <!-- Flanking battlements -->
  <rect x="34" y="84" width="10" height="16" rx="2" fill="#D4AF37"/>
  <rect x="48" y="84" width="10" height="16" rx="2" fill="#D4AF37"/>
  <rect x="62" y="84" width="10" height="16" rx="2" fill="#D4AF37"/>
  <rect x="126" y="84" width="10" height="16" rx="2" fill="#D4AF37"/>
  <rect x="140" y="84" width="10" height="16" rx="2" fill="#D4AF37"/>
  <rect x="154" y="84" width="10" height="16" rx="2" fill="#D4AF37"/>
  <!-- Shield border -->
  <path d="M20,20 H180 V170 Q180,210 100,232 Q20,210 20,170 Z" fill="none" stroke="#8B6914" stroke-width="2.5"/>
</svg>
