<svg xmlns="http://www.w3.org/2000/svg" viewBox="0 0 200 240">
  <!-- Crown -->
  <rect x="43" y="0" width="18" height="14" rx="3" fill="#D4AF37"/>
  <rect x="91" y="0" width="18" height="14" rx="3" fill="#D4AF37"/>
  <rect x="139" y="0" width="18" height="14" rx="3" fill="#D4AF37"/>
  <rect x="38" y="10" width="124" height="12" rx="2" fill="#D4AF37"/>
  <!-- Shield: green field -->
  <path d="M20,20 H180 V170 Q180,210 100,232 Q20,210 20,170 Z" fill="#2A5C3A" stroke="#5C3800" stroke-width="2.5"/>
  <!-- Wheat sheaf (simplified) -->
  <!-- Binding -->
  <rect x="86" y="126" width="28" height="18" rx="3" fill="#D4AF37"/>
  <!-- Centre stalk -->
  <line x1="100" y1="126" x2="100" y2="68" stroke="#D4AF37" stroke-width="5" stroke-linecap="round"/>
  <ellipse cx="100" cy="64" rx="6" ry="13" fill="#D4AF37"/>
  <!-- Left stalks -->
  <line x1="93" y1="126" x2="78" y2="80" stroke="#D4AF37" stroke-width="4" stroke-linecap="round"/>
  <ellipse cx="75" cy="76" rx="5" ry="11" fill="#D4AF37" transform="rotate(-10 75 76)"/>
  <line x1="87" y1="128" x2="62" y2="92" stroke="#D4AF37" stroke-width="4" stroke-linecap="round"/>
  <ellipse cx="59" cy="88" rx="5" ry="10" fill="#D4AF37" transform="rotate(-18 59 88)"/>
  <!-- Right stalks -->
  <line x1="107" y1="126" x2="122" y2="80" stroke="#D4AF37" stroke-width="4" stroke-linecap="round"/>
  <ellipse cx="125" cy="76" rx="5" ry="11" fill="#D4AF37" transform="rotate(10 125 76)"/>
  <line x1="113" y1="128" x2="138" y2="92" stroke="#D4AF37" stroke-width="4" stroke-linecap="round"/>
  <ellipse cx="141" cy="88" rx="5" ry="10" fill="#D4AF37" transform="rotate(18 141 88)"/>
  <!-- Shield border -->
  <path d="M20,20 H180 V170 Q180,210 100,232 Q20,210 20,170 Z" fill="none" stroke="#8B6914" stroke-width="2.5"/>
</svg>
