<svg xmlns="http://www.w3.org/2000/svg" viewBox="0 0 100 160"><rect width="100" height="160" fill="none"/><g stroke="#ffffff" stroke-opacity=".36" stroke-width="1.1" stroke-linejoin="round"><path d="M58 8l28 4 4 18-22 4-20-10z" fill="#38a65a"/><path d="M30 14l30-6 8 26-28 13-22-12z" fill="#1596a3"/><path d="M58 34l25-2 6 28-31 9-14-20z" fill="#c84848"/><path d="M44 66l37-6 12 28-37 12-18-16z" fill="#c7963c"/><path d="M37 49l20 18-15 19-20-12 2-20z" fill="#64a4d8"/><path d="M18 34l26 13-8 41-25-8-4-24z" fill="#e6681a"/><path d="M30 80l20 14-12 20-23-8-6-21z" fill="#7850dc"/><path d="M52 91l36-6 6 30-36 14-21-15z" fill="#488ca8"/><path d="M16 104l25 8-10 22-24-6-4-15z" fill="#cca03c"/><path d="M32 120l54-6 4 28-56 8-18-15z" fill="#e6681a"/><path d="M70 137l18 5-7 16-15-4z" fill="#526a84"/><path d="M8 123l18 10-8 13-15-7z" fill="#64a4d8"/></g></svg>
