<svg xmlns="http://www.w3.org/2000/svg" viewBox="0 0 200 240">
  <!-- Crown -->
  <rect x="43" y="0" width="18" height="14" rx="3" fill="#D4AF37"/>
  <rect x="91" y="0" width="18" height="14" rx="3" fill="#D4AF37"/>
  <rect x="139" y="0" width="18" height="14" rx="3" fill="#D4AF37"/>
  <rect x="38" y="10" width="124" height="12" rx="2" fill="#D4AF37"/>
  <!-- Shield: red field -->
  <path d="M20,20 H180 V170 Q180,210 100,232 Q20,210 20,170 Z" fill="#C8102E" stroke="#5C3800" stroke-width="2.5"/>
  <!-- Watchtower -->
  <rect x="66" y="106" width="68" height="60" rx="3" fill="#D4AF37"/>
  <rect x="76" y="58" width="48" height="52" rx="3" fill="#D4AF37"/>
  <!-- Battlements -->
  <rect x="68" y="42" width="12" height="18" rx="2" fill="#D4AF37"/>
  <rect x="84" y="42" width="12" height="18" rx="2" fill="#D4AF37"/>
  <rect x="100" y="42" width="12" height="18" rx="2" fill="#D4AF37"/>
  <rect x="116" y="42" width="12" height="18" rx="2" fill="#D4AF37"/>
  <!-- Gate arch -->
  <path d="M82,166 L82,130 Q100,112 118,130 L118,166 Z" fill="#C8102E"/>
  <!-- Windows -->
  <rect x="82" y="70" width="12" height="16" rx="3" fill="#C8102E"/>
  <rect x="106" y="70" width="12" height="16" rx="3" fill="#C8102E"/>
  <!-- Shield border -->
  <path d="M20,20 H180 V170 Q180,210 100,232 Q20,210 20,170 Z" fill="none" stroke="#8B6914" stroke-width="2.5"/>
</svg>
