<?xml version="1.0" encoding="UTF-8" standalone="no"?>
<!-- Created with Inkscape (http://www.inkscape.org/) -->

<svg
   xmlns:svg="http://www.w3.org/2000/svg"
   xmlns="http://www.w3.org/2000/svg"
   version="1.1"
   width="450"
   height="299.91052"
   id="svg3847">
  <defs
     id="defs3849" />
  <g
     id="layer5"
     style="display:inline">
    <rect
       width="450"
       height="49.99987"
       x="-2.8070072e-14"
       y="199.91077"
       id="rect4384-4-51-7"
       style="color:#000000;fill:#ffffff;fill-opacity:1;fill-rule:nonzero;stroke:none;stroke-width:0.30399999;marker:none;visibility:visible;display:inline;overflow:visible;enable-background:accumulate" />
    <rect
       width="450"
       height="49.970303"
       x="-2.8070072e-14"
       y="99.940605"
       id="rect4384-4-5"
       style="color:#000000;fill:#ffffff;fill-opacity:1;fill-rule:nonzero;stroke:none;stroke-width:0.30399999;marker:none;visibility:visible;display:inline;overflow:visible;enable-background:accumulate" />
    <rect
       width="450"
       height="49.970303"
       x="-2.8070072e-14"
       y="-2.102051e-06"
       id="rect4384-4-5-1-5"
       style="color:#000000;fill:#ffffff;fill-opacity:1;fill-rule:nonzero;stroke:none;stroke-width:0.30399999;marker:none;visibility:visible;display:inline;overflow:visible;enable-background:accumulate" />
    <path
       d="m 0,-0.0625 0,50.03125 0,49.96875 0,49.96875 0,50 450,0 0,-50 -317.0625,0 0,-49.96875 317.0625,0 0,-49.96875 -317.0625,0 0,-50.03125 -132.9375,0 z"
       id="rect4384-4-51"
       style="color:#000000;fill:#ff0000;fill-opacity:1;fill-rule:nonzero;stroke:none;stroke-width:0.30399999;marker:none;visibility:visible;display:inline;overflow:visible;enable-background:accumulate" />
    <rect
       width="450"
       height="49.99987"
       x="-2.8070072e-14"
       y="249.91064"
       id="rect4384-4-51-7-1"
       style="color:#000000;fill:#ff0000;fill-opacity:1;fill-rule:nonzero;stroke:none;stroke-width:0.30399999;marker:none;visibility:visible;display:inline;overflow:visible;enable-background:accumulate" />
  </g>
  <g
     id="layer4"
     style="display:inline">
    <path
       d="m 70.90625,123.03125 0,0.59375 0,7.3125 1.1875,0 0,-7.3125 0,-0.59375 -1.1875,0 z m 0,11.90625 0,0.4375 0,0.59375 1.1875,0 0,-0.59375 0,-0.4375 -1.1875,0 z M 74,126.78125 l 0,0.5 0,3.65625 1,0 0,-3.65625 0,-0.5 -1,0 z m 0,8.15625 0,0.65625 0,0.5 1,0 0,-0.5 0,-0.65625 -1,0 z m -6.125,-12.96875 0,0.625 0,8.34375 1.25,0 0,-8.34375 0,-0.625 -1.25,0 z m 0,12.96875 0,0.375 0,0.625 1.25,0 0,-0.625 0,-0.375 -1.25,0 z m -2.96875,-11.90625 0,0.59375 0,7.3125 1.1875,0 0,-7.3125 0,-0.59375 -1.1875,0 z m 0,11.90625 0,0.4375 0,0.59375 1.1875,0 0,-0.59375 0,-0.4375 -1.1875,0 z M 62,126.78125 l 0,0.5 0,3.65625 1,0 0,-3.65625 0,-0.5 -1,0 z m 0,8.15625 0,0.65625 0,0.5 1,0 0,-0.5 0,-0.65625 -1,0 z m -0.968749,-3.02697 14.96875,0 0,2.03125 -14.96875,0 0,-2.03125 z M 68.5,15.906252 c -1.360507,0 -2.887473,0.01217 -4.5,0.0625 l 0,7.5 0,0.5 -0.5,0 -5.78125,0 -1,0 -1.09375,0 -0.5,0 0,-0.5 0,-7.0625 c -1.896404,0.114065 -3.787919,0.241232 -5.65625,0.375 l 0,0.4375 0,6.78125 0,0.46875 -0.46875,0.03125 -5.15625,0.34375 -2.625,0.1875 -0.5,0.03125 -0.03125,-0.5 c 0,0 -0.111131,-2.412871 -0.28125,-3.53125 -0.159659,-1.049612 -0.517736,-2.626422 -0.71875,-3.46875 -4.110782,0.349727 -7.34375,0.65625 -7.34375,0.65625 0,0 -0.145561,12.146866 0.875,14.84375 l 0.125,-0.03125 c 0,0 13.296739,-2.875 35.15625,-2.875 21.627088,0 35.15625,2.875 35.15625,2.875 l 0.125,0.03125 c 1.02056,-2.696884 0.875,-14.84375 0.875,-14.84375 0,0 -2.91325,-0.262682 -7.21875,-0.625 -0.204345,0.857407 -0.561032,2.400651 -0.71875,3.4375 -0.170119,1.118379 -0.28125,3.53125 -0.28125,3.53125 l -0.03125,0.5 -0.5,-0.03125 -2.625,-0.1875 -5.15625,-0.34375 -0.46875,-0.03125 0,-0.46875 0,-6.78125 0,-0.40625 C 85.780251,16.6782 83.911104,16.554834 82,16.437502 l 0,7.03125 0,0.5 -0.5,0 -1.09375,0 -1,0 -5.78125,0 -0.5,0 0,-0.5 0,-7.46875 c -1.659816,-0.05469 -3.231647,-0.09375 -4.625,-0.09375 z m -11.28125,0.375 c -0.364977,0.02007 -0.726393,0.04128 -1.09375,0.0625 l 0,6.625 1.09375,0 0,-6.6875 z m 22.6875,0.03125 0,6.65625 1.09375,0 0,-6.59375 c -0.362501,-0.02145 -0.733397,-0.04212 -1.09375,-0.0625 z m -37.59375,1.03125 c -0.588464,0.0482 -1.105835,0.110036 -1.65625,0.15625 0.179959,0.754133 0.544326,2.228324 0.71875,3.375 0.164269,1.079921 0.25512,2.618008 0.28125,3.125 l 1.96875,-0.125 c -0.108449,-2.172256 -0.455287,-4.332417 -1.3125,-6.53125 z m 52.5,0.03125 c -0.849311,2.189211 -1.204508,4.336908 -1.3125,6.5 l 1.96875,0.125 c 0.02613,-0.506992 0.116981,-2.045079 0.28125,-3.125 0.174424,-1.146676 0.538791,-2.620867 0.71875,-3.375 -0.507539,-0.0422 -1.117766,-0.08123 -1.65625,-0.125 z M 68.5,31.156252 c -21.280236,0 -34.169994,2.719757 -34.75,2.84375 0.581988,0.730595 1.418362,1.405354 2.28125,1.90625 1.015754,0.589632 2.112621,0.909644 2.71875,1.3125 l 0.28125,-0.0625 c 0,0 11.633567,-2.625 29.46875,-2.625 17.835182,0 29.46875,2.625 29.46875,2.625 l 0.28125,0.0625 c 0.606128,-0.402856 1.702994,-0.722868 2.71875,-1.3125 0.86289,-0.500896 1.69926,-1.175655 2.28125,-1.90625 -0.58287,-0.122533 -13.691871,-2.84375 -34.75,-2.84375 z m 0,4.375 c -17.736791,0 -29.25,2.59375 -29.25,2.59375 0.44341,2.166399 1.591105,13.218647 1.3125,18.96875 -0.739433,15.261085 -4.338997,44.179158 -4.53125,45.718748 0.425028,-0.0727 12.4468,-2.09375 32.46875,-2.09375 20.02195,0 32.04372,2.02106 32.46875,2.09375 -0.19225,-1.53959 -3.791817,-30.457663 -4.53125,-45.718748 -0.278605,-5.750103 0.86909,-16.802351 1.3125,-18.96875 0,0 -11.51321,-2.59375 -29.25,-2.59375 z m -5.625,16.5625 0.5,0 10,0 0.5,0 0,0.5 0,10.8125 0,0.5 -0.5,0 -10,0 -0.5,0 0,-0.5 0,-10.8125 0,-0.5 z m 1,1 0,9.8125 9,0 0,-9.8125 -9,0 z m 2.28125,1.21875 4.5625,0 0,7.375 -4.5625,0 0,-7.375 z m -11,21.03125 c 0.01041,-3.2e-4 0.02084,-3.2e-4 0.03125,0 0.01041,-3.2e-4 0.02084,-3.2e-4 0.03125,0 0.261799,-0.05727 0.536481,0.144451 0.59375,0.40625 0.05727,0.261799 -0.113201,0.536481 -0.375,0.59375 -2.082563,1.1098 -3.731216,3.670238 -4.65625,7.34375 -0.473855,1.881782 -0.386395,3.565653 -0.65625,5.21875 -0.269855,1.653097 -0.971749,3.261984 -2.96875,4.65625 -0.20845,0.198077 -0.586322,0.173922 -0.75,-0.0625 -0.163677,-0.236423 -0.07127,-0.624613 0.1875,-0.75 1.805249,-1.260389 2.317707,-2.500431 2.5625,-4 0.244793,-1.499569 0.14098,-3.26625 0.65625,-5.3125 0.965796,-3.835388 2.678589,-6.665056 5.125,-7.96875 0.03847,-0.02654 0.08069,-0.04765 0.125,-0.0625 0.02008,-0.01184 0.04098,-0.02229 0.0625,-0.03125 0.01,-0.01086 0.02039,-0.02129 0.03125,-0.03125 z m 25.96875,0.0625 c 0.01041,-3.26e-4 0.02084,-3.26e-4 0.03125,0 0.01041,-3.26e-4 0.02084,-3.26e-4 0.03125,0 0.01041,-3.26e-4 0.02084,-3.26e-4 0.03125,0 0.02081,-0.0013 0.04169,-0.0013 0.0625,0 0.117112,-0.02095 0.241508,0.0017 0.34375,0.0625 2.446411,1.303694 4.159204,4.133362 5.125,7.96875 0.51527,2.04625 0.411457,3.812931 0.65625,5.3125 0.244793,1.499569 0.757251,2.739611 2.5625,4 0.258774,0.125387 0.351177,0.513577 0.1875,0.75 -0.163678,0.236422 -0.54155,0.260577 -0.75,0.0625 -1.997001,-1.394266 -2.698895,-3.003153 -2.96875,-4.65625 -0.269855,-1.653097 -0.182395,-3.336969 -0.65625,-5.21875 -0.925034,-3.673512 -2.573687,-6.23395 -4.65625,-7.34375 -0.379721,-0.141063 -0.379721,-0.796437 0,-0.9375 z M 68.5,101.71875 c -20.313637,0 -32.4375,2.09375 -32.4375,2.09375 l -0.21875,0.0312 c -0.336305,0.88157 -1.377439,1.85413 -2.59375,2.90625 4.501149,-0.56572 17.625542,-2.03125 35.25,-2.03125 18.649649,0 31.81912,1.61279 35.34375,2.09375 -1.25183,-1.08036 -2.34351,-2.06704 -2.6875,-2.96875 l -0.21875,-0.0312 c 0,0 -12.123863,-2.09375 -32.4375,-2.09375 z m 0,4 c -20.425558,0 -34.945968,1.96287 -36.5625,2.1875 -1.22839,1.07982 -2.441491,2.2413 -3.15625,3.5 1.899104,-0.40796 12.583723,-2.4375 39.71875,-2.4375 27.153194,0 37.72635,1.97366 39.71875,2.40625 -0.68537,-1.20792 -1.82716,-2.33638 -3,-3.375 0,0 -0.031,4e-5 -0.0312,0 -0.086,-0.013 -15.112202,-2.28125 -36.6875,-2.28125 z m 0,4.25 c -30.126395,0 -39.875,2.46875 -39.875,2.46875 l -0.3125,0.0937 c -0.905646,3.49241 -3.21875,30.21875 -3.21875,30.21875 0,0 13.580974,1.57306 26.8125,2.5625 L 52,141.40625 l 0,-0.5 0.5,0 3.34375,0 c 0.01555,-1.18099 0.104989,-2.53689 0.21875,-3.96875 l -3.09375,0 -0.53125,0 0.0625,-0.53125 c 0.122628,-1.53095 0.259221,-3.14335 0.71875,-5.03125 l 0.09375,-0.34375 0.375,-0.0312 3.09375,-0.15625 0.125,0 c 0.207032,-0.9532 0.459684,-1.88607 0.75,-2.8125 l -3.21875,-0.0937 -0.59375,0 0.09375,-0.59375 c 0.249619,-1.53705 0.535257,-3.13097 1.5,-4.75 l 0.1875,-0.28125 0.3125,0.0312 3.8125,0.53125 0.25,0.0312 c 0.176026,-0.25947 0.371579,-0.50466 0.5625,-0.75 l -0.03125,-0.0312 -2.4375,-2.34375 -0.34375,-0.34375 0.3125,-0.34375 c 1.256075,-1.55348 2.631802,-2.62637 4.03125,-3.5625 l 0.375,-0.25 0.28125,0.34375 2.3125,2.8125 0.09375,0.125 c 0.104734,-0.0415 0.206003,-0.0873 0.3125,-0.125 l 0,-0.15625 0,-4.78125 0,-0.5 0.5,0 2,0 0.5,0 0.5,0 2,0 0.5,0 0,0.5 0,4.78125 0,0.15625 c 0.102923,0.0359 0.211245,0.0544 0.3125,0.0937 l 0.09375,-0.0937 2.3125,-2.8125 0.28125,-0.34375 0.375,0.25 c 1.399448,0.93613 2.775175,2.00902 4.03125,3.5625 l 0.3125,0.34375 -0.34375,0.34375 -2.4375,2.34375 c 0.195342,0.25125 0.382673,0.51508 0.5625,0.78125 L 77.1875,122.875 81,122.34375 l 0.3125,-0.0312 0.1875,0.28125 c 0.964743,1.61903 1.250381,3.21295 1.5,4.75 l 0.09375,0.59375 -0.59375,0 -3.1875,0.0937 c 0.290316,0.92643 0.542968,1.8593 0.75,2.8125 l 0.09375,0 L 83.25,131 l 0.375,0.0312 0.09375,0.34375 c 0.459529,1.8879 0.596122,3.5003 0.71875,5.03125 l 0.0625,0.53125 -0.53125,0 -3.0625,0 c 0.113761,1.43186 0.203197,2.78776 0.21875,3.96875 l 3.3125,0 0.5,0 0,0.5 0.09375,3.90625 c 13.250442,-0.98886 26.875,-2.5625 26.875,-2.5625 0,0 -2.3131,-26.72634 -3.21875,-30.21875 l -0.3125,-0.0937 c 0,0 -9.455652,-2.46875 -39.875,-2.46875 z M 66.46875,114 l 0,4.15625 c 0.492703,-0.11324 1.006187,-0.18875 1.53125,-0.21875 0.429625,-0.0246 0.581844,-0.0243 1,0 0.50202,0.0292 0.997004,0.0823 1.46875,0.1875 l 0,-4.125 -1.5,0 -0.5,0 -0.5,0 -1.5,0 z m -4.15625,2.625 c -1.108317,0.76406 -2.174463,1.65283 -3.15625,2.78125 l 2.03125,1.96875 c 0.886693,-0.97969 1.923424,-1.7765 3.0625,-2.375 l -1.9375,-2.375 z m 12.3125,0 -1.9375,2.34375 c 1.159984,0.60109 2.19557,1.40919 3.09375,2.40625 l 2,-1.96875 C 76.799463,118.27783 75.733317,117.38906 74.625,116.625 z M 38,117.96875 l 4,0 0,8.96875 -4,0 0,-8.96875 z m 56.96875,0 3.96875,0 0,8.96875 -3.96875,0 0,-8.96875 z M 68.5,118.84375 c -4.143572,0 -7.271028,3.09245 -9,7.03125 -3.466067,7.89612 -2.53125,19.75 -2.53125,19.75 l 0,0.0312 c 0.672963,0.0419 1.372066,0.0881 2.03125,0.125 0,0 -0.835974,-11.51723 2.21875,-18.875 0.512972,-1.23557 1.393932,-2.71739 2.625,-3.90625 1.110481,-1.0724 2.551776,-1.79001 4.15625,-1.96875 0.476715,-0.0531 0.585937,-0.0547 1,0 1.598102,0.21107 3.047186,0.89771 4.15625,1.96875 1.231068,1.18886 2.112028,2.67068 2.625,3.90625 3.054724,7.35777 2.21875,18.875 2.21875,18.875 0.649083,-0.0364 1.337527,-0.0838 2,-0.125 l 0,-0.0312 c 0,0 0.934817,-11.85388 -2.53125,-19.75 -1.728972,-3.9388 -4.825178,-7.03125 -8.96875,-7.03125 z m -12.3125,4.5625 c -0.626021,1.16098 -0.914976,2.35109 -1.125,3.5625 l 2.75,0.0625 0.15625,0 c 0.189952,-0.53328 0.401144,-1.05253 0.625,-1.5625 0.244649,-0.55734 0.510479,-1.10235 0.8125,-1.625 l -3.21875,-0.4375 z m 24.5625,0 -3.1875,0.4375 c 0.300989,0.52253 0.567851,1.06766 0.8125,1.625 0.223856,0.50997 0.435048,1.02922 0.625,1.5625 l 0.125,0 2.75,-0.0625 c -0.210024,-1.21141 -0.498979,-2.40152 -1.125,-3.5625 z m -24.0625,8.4375 -2.53125,0.125 c -0.329775,1.45412 -0.485261,2.7232 -0.59375,3.96875 l 2.5,0 0.0625,0 c 0.130772,-1.3324 0.297782,-2.69916 0.5625,-4.09375 z m 23.59375,0 c 0.264718,1.39459 0.431728,2.76135 0.5625,4.09375 l 0.03125,0 2.5,0 c -0.108489,-1.24555 -0.263975,-2.51463 -0.59375,-3.96875 l -2.5,-0.125 z M 53,141.90625 52.90625,145.375 c 1.025593,0.0745 2.051906,0.15295 3.0625,0.21875 -0.01,-0.12221 -0.117649,-1.58181 -0.125,-3.6875 l -2.84375,0 z m 28.125,0 c -0.0074,2.10569 -0.114995,3.56529 -0.125,3.6875 1.000834,-0.0651 2.015505,-0.14516 3.03125,-0.21875 l -0.09375,-3.46875 -2.8125,0 z"
       id="path4951-4-9"
       style="font-size:medium;font-style:normal;font-variant:normal;font-weight:normal;font-stretch:normal;text-indent:0;text-align:start;text-decoration:none;line-height:normal;letter-spacing:normal;word-spacing:normal;text-transform:none;direction:ltr;block-progression:tb;writing-mode:lr-tb;text-anchor:start;color:#000000;fill:#ffffff;fill-opacity:1;stroke:none;stroke-width:1.18929791;marker:none;visibility:visible;display:inline;overflow:visible;enable-background:accumulate;font-family:Bitstream Vera Sans;-inkscape-font-specification:Bitstream Vera Sans" />
  </g>
</svg>
