<svg xmlns="http://www.w3.org/2000/svg" viewBox="0 0 200 240">
  <!-- Crown -->
  <rect x="43" y="0" width="18" height="14" rx="3" fill="#D4AF37"/>
  <rect x="91" y="0" width="18" height="14" rx="3" fill="#D4AF37"/>
  <rect x="139" y="0" width="18" height="14" rx="3" fill="#D4AF37"/>
  <rect x="38" y="10" width="124" height="12" rx="2" fill="#D4AF37"/>
  <!-- Shield: white/silver field -->
  <path d="M20,20 H180 V170 Q180,210 100,232 Q20,210 20,170 Z" fill="#F0F0F0" stroke="#5C3800" stroke-width="2.5"/>
  <!-- Red Latin cross -->
  <rect x="88" y="28" width="24" height="172" rx="3" fill="#C8102E"/>
  <rect x="44" y="84" width="112" height="24" rx="3" fill="#C8102E"/>
  <!-- Red 6-pointed star in upper canton -->
  <polygon points="58,36 63,50 77,50 66,59 70,73 58,64 46,73 50,59 39,50 53,50" fill="#C8102E"/>
  <!-- Shield border -->
  <path d="M20,20 H180 V170 Q180,210 100,232 Q20,210 20,170 Z" fill="none" stroke="#8B6914" stroke-width="2.5"/>
</svg>
