<?xml version="1.0" encoding="UTF-8" standalone="no"?>
<!-- Created with Inkscape (http://www.inkscape.org/) -->
<svg
   xmlns:dc="http://purl.org/dc/elements/1.1/"
   xmlns:cc="http://web.resource.org/cc/"
   xmlns:rdf="http://www.w3.org/1999/02/22-rdf-syntax-ns#"
   xmlns:svg="http://www.w3.org/2000/svg"
   xmlns="http://www.w3.org/2000/svg"
   xmlns:sodipodi="http://sodipodi.sourceforge.net/DTD/sodipodi-0.dtd"
   xmlns:inkscape="http://www.inkscape.org/namespaces/inkscape"
   version="1.0"
   width="800"
   height="533.33002"
   id="svg3248"
   sodipodi:version="0.32"
   inkscape:version="0.45.1"
   sodipodi:docname="Lelystad.svg"
   inkscape:output_extension="org.inkscape.output.svg.inkscape"
   sodipodi:docbase="C:\TIIKERI\Liput\Alankomaat\provinssit\Flevoland - kunnat\svg">
  <metadata
     id="metadata2923">
    <rdf:RDF>
      <cc:Work
         rdf:about="">
        <dc:format>image/svg+xml</dc:format>
        <dc:type
           rdf:resource="http://purl.org/dc/dcmitype/StillImage" />
      </cc:Work>
    </rdf:RDF>
  </metadata>
  <sodipodi:namedview
     inkscape:window-height="712"
     inkscape:window-width="1024"
     inkscape:pageshadow="2"
     inkscape:pageopacity="0.0"
     guidetolerance="10.0"
     gridtolerance="10.0"
     objecttolerance="10.0"
     borderopacity="1.0"
     bordercolor="#666666"
     pagecolor="#ffffff"
     id="base"
     inkscape:zoom="0.7068794"
     inkscape:cx="400"
     inkscape:cy="266.66501"
     inkscape:window-x="-4"
     inkscape:window-y="-4"
     inkscape:current-layer="svg3248" />
  <defs
     id="defs3250" />
  <rect
     id="rect3335"
     style="fill:#f5e200;fill-opacity:1;fill-rule:evenodd;stroke:none;stroke-width:1;stroke-linecap:butt;stroke-linejoin:miter;stroke-miterlimit:4;stroke-dasharray:none;stroke-dashoffset:0;stroke-opacity:1"
     y="-10.132052"
     x="-12.121831"
     ry="3.9285715"
     height="565.68542"
     width="832.36572" />
  <path
     id="path3322"
     style="fill:#0039a6;fill-opacity:1;fill-rule:evenodd;stroke:none;stroke-width:1;stroke-linecap:butt;stroke-linejoin:miter;stroke-miterlimit:4;stroke-dasharray:none;stroke-dashoffset:0;stroke-opacity:1"
     d="M 189.86525,220.58495 L 269.55508,175.19116 L 348.71216,221.50768 L 348.17942,313.21799 L 268.4896,358.61178 L 189.33251,312.29525 L 189.86525,220.58495 z " />
  <path
     id="path3314"
     style="fill:#ffffff;fill-opacity:1;fill-rule:evenodd;stroke:none;stroke-width:1px;stroke-linecap:butt;stroke-linejoin:miter;stroke-opacity:1"
     d="M 280,285.47287 C 283.66546,246.84523 322.51929,246.74521 318.21429,281.5443 C 339.23272,271.60301 341.24702,241.45787 329.28571,227.97287 C 313.69587,217.57468 281.326,226.67534 275,288.68716 C 271.47974,316.85028 294.33998,331.84718 302.32143,327.61573 C 306.33418,325.30917 316.89883,317.12251 297.85714,298.33001 C 300.34565,307.4292 302.44282,314.47175 293.39286,315.65145 C 283.09181,316.16808 277.95895,298.33385 280,285.47287 z " />
  <path
     id="path3316"
     style="fill:#ffffff;fill-opacity:1;fill-rule:evenodd;stroke:none;stroke-width:1px;stroke-linecap:butt;stroke-linejoin:miter;stroke-opacity:1"
     d="M 255.24355,285.47287 C 251.57809,246.84523 212.72426,246.74521 217.02926,281.5443 C 196.01083,271.60301 193.99653,241.45787 205.95784,227.97287 C 221.54768,217.57468 253.91755,226.67534 260.24355,288.68716 C 263.76381,316.85028 240.90357,331.84718 232.92212,327.61573 C 228.90937,325.30917 218.34472,317.12251 237.38641,298.33001 C 234.8979,307.4292 232.80073,314.47175 241.85069,315.65145 C 252.15174,316.16808 257.2846,298.33385 255.24355,285.47287 z " />
  <path
     id="path3318"
     style="fill:#ffffff;fill-opacity:1;fill-rule:evenodd;stroke:none;stroke-width:1px;stroke-linecap:butt;stroke-linejoin:miter;stroke-opacity:1"
     d="M 267.14286,197.61573 C 256.94062,217.72352 253.33897,240.49865 262.14286,267.25859 C 263.82118,280.54896 265.14438,293.34015 262.14286,304.75859 C 257.97403,320.36725 263.84573,334.19753 268.57143,338.33002 C 272.34583,334.87888 278.13609,318.11389 272.85714,305.11573 C 269.32618,292.25858 273.02011,277.97288 275,267.25859 C 280.95141,238.30679 280.20045,215.16213 267.14286,197.61573 z " />
  <rect
     id="rect3320"
     style="fill:#ffffff;fill-opacity:1;fill-rule:evenodd;stroke:none;stroke-width:1;stroke-linecap:butt;stroke-linejoin:miter;stroke-miterlimit:4;stroke-dasharray:none;stroke-dashoffset:0;stroke-opacity:1"
     y="280.11572"
     x="251.78572"
     ry="3.9285715"
     height="19.642857"
     width="33.214287" />
  <path
     id="rect3326"
     style="fill:#0039a6;fill-opacity:1;fill-rule:evenodd;stroke:none;stroke-width:1;stroke-linecap:butt;stroke-linejoin:miter;stroke-miterlimit:4;stroke-dashoffset:0;stroke-opacity:1"
     d="M 177.3954,-12.261717 L 234.00254,-12.261717 L 234.00254,118.80971 L 359.71683,118.80971 L 359.71683,175.23828 L 234.00254,175.23828 L 177.3954,175.23828 L 177.3954,-12.261717 z " />
  <path
     id="path3329"
     style="fill:#0039a6;fill-opacity:1;fill-rule:evenodd;stroke:none;stroke-width:1;stroke-linecap:butt;stroke-linejoin:miter;stroke-miterlimit:4;stroke-dashoffset:0;stroke-opacity:1"
     d="M 359.71683,545.98557 L 303.10969,545.98557 L 303.10969,414.91415 L 177.3954,414.91415 L 177.3954,358.48558 L 303.10969,358.48558 L 359.71683,358.48558 L 359.71683,545.98557 z " />
  <path
     id="path3331"
     style="fill:#0039a6;fill-opacity:1;fill-rule:evenodd;stroke:none;stroke-width:1;stroke-linecap:butt;stroke-linejoin:miter;stroke-miterlimit:4;stroke-dashoffset:0;stroke-opacity:1"
     d="M -10.110649,358.26656 L -10.110649,301.43764 L 120.96077,301.43764 L 120.96077,175.23084 L 177.38934,175.23084 L 177.38934,301.43764 L 177.38934,358.26656 L -10.110649,358.26656 z " />
  <path
     id="path3333"
     style="fill:#0039a6;fill-opacity:1;fill-rule:evenodd;stroke:none;stroke-width:1;stroke-linecap:butt;stroke-linejoin:miter;stroke-miterlimit:4;stroke-dashoffset:0;stroke-opacity:1"
     d="M 827.16837,175.19927 L 827.16837,232.13907 L 416.09695,232.13907 L 416.09695,358.59213 L 359.66838,358.59213 L 359.66838,232.13907 L 359.66838,175.19927 L 827.16837,175.19927 z " />
</svg>
