<svg xmlns="http://www.w3.org/2000/svg" viewBox="0 0 200 240">
  <!-- Crown -->
  <rect x="43" y="0" width="18" height="14" rx="3" fill="#D4AF37"/>
  <rect x="91" y="0" width="18" height="14" rx="3" fill="#D4AF37"/>
  <rect x="139" y="0" width="18" height="14" rx="3" fill="#D4AF37"/>
  <rect x="38" y="10" width="124" height="12" rx="2" fill="#D4AF37"/>
  <!-- Shield: red field -->
  <path d="M20,20 H180 V170 Q180,210 100,232 Q20,210 20,170 Z" fill="#B5121B" stroke="#5C3800" stroke-width="2.5"/>
  <!-- Brabant lion (simplified rampant) -->
  <ellipse cx="100" cy="138" rx="20" ry="26" fill="#D4AF37"/>
  <circle cx="100" cy="94" r="17" fill="#D4AF37"/>
  <circle cx="100" cy="94" r="22" fill="none" stroke="#D4AF37" stroke-width="8"/>
  <circle cx="100" cy="94" r="13" fill="#D4AF37"/>
  <path d="M78,120 Q58,104 56,88 Q60,78 68,82 Q74,96 82,112" fill="#D4AF37"/>
  <path d="M122,120 Q142,104 144,88 Q140,78 132,82 Q126,96 118,112" fill="#D4AF37"/>
  <path d="M128,150 Q148,140 150,124 Q152,110 142,108" stroke="#D4AF37" stroke-width="9" stroke-linecap="round" fill="none"/>
  <line x1="88" y1="162" x2="80" y2="186" stroke="#D4AF37" stroke-width="8" stroke-linecap="round"/>
  <line x1="112" y1="162" x2="120" y2="186" stroke="#D4AF37" stroke-width="8" stroke-linecap="round"/>
  <!-- Shield border -->
  <path d="M20,20 H180 V170 Q180,210 100,232 Q20,210 20,170 Z" fill="none" stroke="#8B6914" stroke-width="2.5"/>
</svg>
