<?xml version="1.0" encoding="UTF-8"?><svg xmlns="http://www.w3.org/2000/svg" width="900" height="600">
<rect width="900" height="600" fill="#fcca24"/><path d="M0,0V600H300V300z" fill="#004b96"/><path d="M0,0H900V300H300z" fill="#f42a2c"/><rect width="300" height="300" fill="#fff"/><g fill="#004b96"><path d="m78.81,175.008,5.72607,15.7534c6.47859-1.71739,13.1325-2.39092,20.3011,0,9.97722,4.02819,19.9543,3.69443,29.9315,1.54955,7.34427-0.30489,10.8716-3.26104,24.4656,0.77478,8.93607,0.66542,17.8721,1.77061,26.8082-1.54955,13.1951-2.72861,15.6211-1.89541,21.082-2.06599l4.42475-14.4622c-9.36983-2.00784-18.7397-3.08538-28.1095,1.03301-8.84933,2.35598-17.6985,1.54058-26.5478,0.51654-7.37443-2.43182-14.7488-1.66969-22.1231,0-9.19638,1.67264-18.3926,1.68108-27.589-0.77478-9.45655-3.01725-18.9131-2.55519-28.3697-0.77477z"/><path d="m92.0839,200.575c2.21579,3.78764,3.15266,7.57534,8.58902,11.363,2.97656,2.84075,7.03545,5.68152,14.8356,8.52244,7.37442-0.0581,14.7487-0.14451,22.1231-1.54955,4.1568-1.07984,8.09105-2.26996,18.9998,0,6.5936,1.6341,13.1872,2.79897,19.7808,1.03297,9.02885-5.76159,17.659-11.9188,23.9451-20.4019-4.88245,0.3758-8.54534,0.0257-16.6575,2.32421-7.28755,2.83923-14.5751,2.03795-21.8628,1.54956-9.93432-3.01473-19.0418-2.74827-27.589-0.25824-8.93589,1.14867-17.872,1.88725-26.808-1.03296-5.41181-1.6801-10.6349-2.61073-15.3561-1.54956z"/><path fill="#000" d="m83.7553,128.006-0.520652,9.81366,6.76704,0.25819,11.4521,29.699c10.6712,5.42415,21.3423,5.04089,32.0134,4.39031,6.5992-2.57693,15.8722-2.50082,27.3287-0.25819,7.54787,1.31163,15.0958,1.84898,22.6438-0.25824,5.55246-2.84273,11.1049-3.77593,16.6574-3.87388l4.94525-25.0505-2.34246-4.3902h5.46574v-8.2641h-3.3836v3.61554h-3.90409v-3.3573h-4.94509l0.26017,3.3573h-4.16442v-3.3573h-5.20526v3.61554h-3.90425v-3.61554h-3.64379l-1.04098,14.9786c-19.3091,5.16739-22.5322,3.95005-28.6301,3.87394l-1.04099-72.8274,2.60263-0.25824,2.34262-8.52228h-15.0959l2.60278,8.78052h2.08214l-0.52065,72.569c-19.5931-0.75535-33.093-5.71797-46.5888-10.5066l5.20558,0.41202,1.04113-10.3073-3.22468-0.14047-0.419095,4.41306-3.36063-0.15007,0.327066-4.18137-4.53055-0.19934-0.380007,4.33129-2.9875-0.19933,0.265017-4.24968-4.16895-0.14064z"/><path d="m110.529,141.527c-15.908-23.5668-15.1307-43.512,0.36818-60.2619l80.9777,0.3653c-10.6136,9.29634-18.7404,24.145-17.6677,59.5314-20.3762-13.7924-41.346-17.8653-63.6781,0.36519z"/><path fill="#fff" d="m133.807,104.491c-2.10838-4.64598-3.99547-7.31419-5.61322-7.57846-2.24113-0.84191-3.9344-0.32449-5.70524,0-2.33933,0.72238-3.91809,2.19949-4.78499,4.38275-0.36508,1.30874-0.27836,2.61746,0.0918,3.92618,0.19115,2.55931,2.73877,3.81979,5.06118,5.20436-0.52486-1.55206-1.07488-3.10425-0.64421-4.65666,0.22676-2.14883,3.44608-1.3285,6.53345-0.63909-0.85883,0.18268-0.98146,0.85216-0.36802,2.00882,1.01223-0.19642,2.02448-0.0454,3.0367,0.73049l-0.27617,4.74777-1.93231,2.92191,4.2328-0.18262c2.63573,7.42886,11.2778,3.14484,11.5026,0.0912l3.58875-0.0912-3.22071-4.01747c-1.92346-3.60249,2.21982-4.40756,3.12871-3.92618,0.54862-1.19379,0.39865-2.21416-1.01223-2.9218,1.7587-0.82746,5.38444-1.10908,6.25742-1.18706,2.35894,0.49765,3.23472,1.58477,4.23297,4.10886-0.0139,1.89991-1.12694,3.21717-2.3005,4.65655,2.63791-0.30911,5.27582-1.21914,7.91372-3.4696,0.8175-2.5603,0.26623-4.03401-0.092-5.66094-1.87106-2.99807-3.74214-3.02971-5.61323-4.01762l-4.78515-0.0912c-3.01836,0.70567-5.4516,2.57287-8.00572,4.20008,2.75119-2.15809,6.82391-4.7095,7.36167-6.20873,0.52298-2.81973,0.53603-3.36672-0.092-4.38276-0.17392-0.8826-0.80957-1.49141-2.66869-2.37394-2.0857-0.24856-4.17157-0.51742-6.25743,0.18261-5.11355,2.23661-9.09007,5.9574-9.57001,14.2438z"/></g></svg>