<svg xmlns="http://www.w3.org/2000/svg" viewBox="0 0 100 160"><rect width="100" height="160" fill="none"/><g fill="#173354" stroke="#6aa4d8" stroke-width="1.2" stroke-linejoin="round"><path d="M58 8l28 4 4 18-22 4-20-10z"/><path d="M30 14l30-6 8 26-28 13-22-12z"/><path d="M58 34l25-2 6 28-31 9-14-20z"/><path d="M44 66l37-6 12 28-37 12-18-16z"/><path d="M37 49l20 18-15 19-20-12 2-20z"/><path d="M18 34l26 13-8 41-25-8-4-24z"/><path d="M30 80l20 14-12 20-23-8-6-21z"/><path d="M52 91l36-6 6 30-36 14-21-15z"/><path d="M16 104l25 8-10 22-24-6-4-15z"/><path d="M32 120l54-6 4 28-56 8-18-15z"/><path d="M70 137l18 5-7 16-15-4z"/><path d="M8 123l18 10-8 13-15-7z"/></g></svg>
