<?xml version="1.0" standalone="no"?>
<!DOCTYPE svg PUBLIC "-//W3C//DTD SVG 20010904//EN"
 "http://www.w3.org/TR/2001/REC-SVG-20010904/DTD/svg10.dtd">
<svg version="1.0" xmlns="http://www.w3.org/2000/svg"
 width="325" height="217" viewBox="0 1 468 312 "
 preserveAspectRatio="xMidYMid meet">
<metadata>
Created by VectorColors 1.0 by Mattias Ohlsson 2008 and by potrace 1.8, written by Peter Selinger 2001-2007
</metadata>
<g transform="translate(0.0,313.03) scale(0.144,-0.1440)"
fill="#fefeff" stroke="none">
<path d="M0 1630 l0 -540 188 0 c103 0 192 4 198 8 5 5 56 17 114 28 l105 19
-55 7 c-30 3 -83 6 -117 7 l-63 1 0 51 0 51 98 -7 c53 -4 106 -9 117 -12 13
-3 17 -2 10 5 -5 5 -57 25 -115 43 -58 18 -106 34 -107 34 -4 2 19 80 26 87 4
4 51 -8 106 -27 54 -19 101 -35 104 -35 3 0 -39 30 -92 66 l-97 66 27 49 c24
42 30 47 45 36 98 -69 267 -185 286 -195 13 -8 27 -11 30 -7 13 13 7 209 -7
244 l-14 33 -61 -4 c-34 -3 -69 -8 -78 -13 -16 -6 -18 0 -18 59 0 74 11 86 74
86 26 0 36 5 41 20 8 27 33 31 139 28 l89 -3 -27 -32 -27 -32 35 -95 c20 -52
36 -102 36 -111 0 -37 17 -8 46 78 17 51 34 99 38 108 5 11 -3 29 -24 53 l-32
36 106 0 c101 0 107 -1 128 -25 15 -17 32 -25 54 -25 49 0 64 -22 64 -91 0
-58 -1 -60 -22 -52 -13 4 -50 8 -83 8 l-60 0 -13 -50 c-12 -47 -11 -209 1
-222 5 -4 202 120 217 137 3 3 29 23 59 44 58 41 59 41 87 -22 8 -18 12 -37 9
-42 -3 -4 -43 -34 -90 -66 -47 -32 -84 -59 -82 -60 1 -2 38 10 82 25 133 47
121 47 135 -4 7 -25 11 -47 9 -49 -2 -2 -49 -18 -104 -36 -55 -18 -104 -37
-110 -42 -7 -7 -3 -8 10 -5 11 3 64 8 118 12 l97 7 0 -35 c0 -59 -7 -67 -59
-67 -25 0 -77 -3 -116 -7 l-70 -6 115 -25 115 -26 817 -3 818 -3 0 540 0 540
-1625 0 -1625 0 0 -540z"/>
<path d="M793 1768 c2 -7 14 -13 27 -13 13 0 25 6 28 13 2 8 -7 12 -28 12 -21
0 -30 -4 -27 -12z"/>
<path d="M1152 1768 c7 -20 58 -23 58 -4 0 11 -10 16 -31 16 -20 0 -29 -4 -27
-12z"/>
<path d="M663 1754 c-8 -3 -13 -25 -13 -53 l0 -47 68 4 c66 4 82 12 82 43 0
33 -26 52 -76 55 -27 2 -55 1 -61 -2z"/>
<path d="M1233 1750 c-25 -10 -37 -41 -28 -70 5 -16 15 -20 53 -20 26 0 57 -3
70 -6 21 -6 22 -3 22 44 0 36 -4 52 -16 56 -22 8 -75 6 -101 -4z"/>
<path d="M830 1685 c0 -25 14 -34 24 -16 8 12 -3 41 -15 41 -5 0 -9 -11 -9
-25z"/>
<path d="M1146 1694 c-7 -18 0 -34 15 -34 5 0 9 11 9 25 0 28 -15 34 -24 9z"/>
<path d="M850 1375 c0 -17 44 -134 49 -129 3 3 15 33 27 67 l21 62 21 -58 c12
-32 22 -62 22 -67 0 -28 18 -3 34 45 18 59 30 68 42 33 3 -12 13 -37 21 -57
l15 -36 24 65 c13 36 24 68 24 73 0 4 -67 7 -150 7 -82 0 -150 -2 -150 -5z"/>
<path d="M755 1320 c22 -14 31 -16 37 -7 14 22 8 27 -29 27 l-38 0 30 -20z"/>
<path d="M1202 1328 c6 -18 22 -20 43 -3 19 14 18 14 -13 15 -22 0 -32 -4 -30
-12z"/>
<path d="M720 1265 c0 -2 13 -11 29 -19 26 -14 30 -14 35 0 9 24 9 24 -29 24
-19 0 -35 -2 -35 -5z"/>
<path d="M1210 1250 c0 -20 1 -20 33 -4 45 23 45 24 4 24 -30 0 -37 -4 -37
-20z"/>
<path d="M800 1223 c0 -5 9 -32 20 -61 11 -29 20 -57 20 -62 0 -6 -85 -10
-231 -10 l-230 0 7 -22 c18 -60 24 -69 42 -64 30 9 206 46 217 45 5 0 -38 -25
-98 -55 -119 -60 -116 -55 -64 -126 l20 -27 101 51 101 50 -79 -80 -78 -79 34
-27 c19 -14 39 -26 44 -26 4 0 31 23 59 50 l51 51 -10 -78 -11 -78 -78 -3 -77
-3 0 -44 c0 -47 9 -56 30 -30 7 8 28 15 48 15 l36 0 -28 -29 c-21 -22 -27 -37
-24 -62 4 -38 28 -53 28 -17 0 16 10 30 29 41 l30 18 3 -58 c3 -57 3 -58 36
-61 32 -3 43 12 23 34 -9 9 2 120 13 131 3 3 17 -2 30 -11 36 -23 38 -21 34
27 -3 38 -6 42 -31 45 -21 3 -27 8 -23 20 3 9 17 64 32 122 15 58 29 107 31
109 7 9 62 -52 74 -81 9 -22 9 -35 0 -55 -8 -18 -9 -29 -1 -38 8 -10 6 -24
-10 -55 -37 -73 -78 -194 -91 -273 -7 -42 -11 -78 -8 -80 2 -2 18 -7 35 -10
l32 -6 6 63 c4 34 18 85 32 112 13 27 22 40 19 29 -7 -24 -24 -151 -25 -182 0
-19 5 -23 29 -23 l29 0 8 103 c9 113 21 97 23 -30 l1 -73 35 0 c30 0 35 3 35
23 -1 34 -17 149 -25 172 -3 11 1 7 10 -8 23 -40 45 -116 45 -156 0 -26 3 -32
16 -27 9 3 25 6 35 6 18 0 20 5 14 47 -12 88 -36 175 -75 265 -33 75 -37 93
-27 109 9 15 8 22 -5 35 -16 16 -16 19 2 53 18 35 67 89 73 80 2 -2 16 -51 31
-109 15 -58 30 -113 32 -122 4 -14 -1 -18 -25 -18 -30 0 -31 -1 -31 -45 0 -25
2 -45 5 -45 3 0 17 7 31 16 13 9 27 14 30 11 4 -3 7 -42 8 -86 l1 -81 28 0
c26 0 27 1 27 60 0 33 3 60 6 60 18 0 64 -44 64 -62 0 -33 25 -14 28 21 3 25
-3 40 -24 62 l-28 29 36 0 c20 0 41 -7 48 -15 21 -26 30 -17 30 30 l0 45 -79
0 -79 0 -6 48 c-4 26 -10 63 -13 82 l-5 35 54 -52 c29 -29 57 -53 61 -53 5 0
24 12 43 27 l35 26 -78 80 -78 79 102 -51 101 -50 16 24 c9 14 23 36 32 49
l16 25 -109 55 c-59 30 -103 55 -98 55 6 0 60 -10 120 -23 61 -13 113 -21 117
-18 3 4 11 24 16 45 l10 37 -229 0 c-126 0 -229 4 -229 8 0 5 9 35 20 67 11
32 20 60 20 62 0 1 -90 3 -200 3 -110 0 -200 -3 -200 -7z m126 -76 l21 -62 23
67 c14 37 27 65 30 63 4 -2 15 -31 25 -65 10 -33 21 -60 25 -60 4 0 15 27 25
60 10 34 21 63 25 65 3 2 16 -26 28 -63 l23 -67 -24 -70 -24 -70 -21 58 c-12
32 -22 62 -22 67 0 6 -4 10 -8 10 -5 0 -17 -27 -27 -60 -10 -34 -22 -63 -25
-65 -4 -2 -15 23 -25 56 -17 54 -35 86 -35 60 0 -6 -10 -36 -21 -67 l-22 -58
-24 69 -25 68 23 68 c13 38 26 66 29 63 3 -3 14 -33 26 -67z"/>
<path d="M725 1211 l-30 -7 43 -11 c38 -10 42 -9 42 8 0 20 -6 21 -55 10z"/>
<path d="M1220 1202 c0 -18 4 -19 40 -10 47 12 47 13 -2 22 -33 6 -38 4 -38
-12z"/>
<path d="M720 1141 c-22 -6 -23 -8 -7 -14 31 -12 57 -8 57 8 0 16 -10 17 -50
6z"/>
<path d="M1230 1136 c0 -17 23 -20 55 -6 13 6 15 9 5 9 -8 1 -25 4 -37 7 -17
5 -23 2 -23 -10z"/>
</g>
<g transform="translate(0.0,313.03) scale(0.144,-0.1440)"
fill="#0103ff" stroke="none">
<path d="M756 1804 c-9 -8 -16 -20 -16 -25 0 -5 -16 -9 -36 -9 -64 0 -74 -12
-74 -86 0 -59 2 -65 18 -59 9 5 44 10 78 13 l61 4 14 -33 c14 -35 20 -231 7
-244 -3 -4 -17 -1 -30 7 -19 10 -188 126 -286 195 -15 11 -21 6 -45 -36 l-27
-49 97 -66 c53 -36 95 -66 92 -66 -3 0 -50 16 -104 35 -55 19 -102 31 -106 27
-7 -7 -30 -85 -26 -87 1 0 49 -16 107 -34 58 -18 110 -38 115 -43 7 -7 3 -8
-10 -5 -11 3 -64 8 -117 12 l-98 7 0 -51 0 -51 63 -1 c34 -1 87 -4 117 -7 l55
-7 -105 -19 c-58 -11 -109 -23 -115 -28 -5 -4 -94 -8 -197 -8 l-188 0 0 -545
0 -545 1625 0 1625 0 0 545 0 545 -817 3 -818 3 -115 26 -115 25 70 6 c39 4
91 7 116 7 52 0 59 8 59 67 l0 35 -97 -7 c-54 -4 -107 -9 -118 -12 -13 -3 -17
-2 -10 5 6 5 55 24 110 42 55 18 102 34 104 36 2 2 -2 24 -9 49 -14 51 -2 51
-135 4 -44 -15 -81 -27 -82 -25 -2 1 35 28 82 60 47 32 87 62 90 66 3 5 -1 24
-9 42 -28 63 -29 63 -87 22 -30 -21 -56 -41 -59 -44 -15 -17 -212 -141 -217
-137 -12 13 -13 175 -1 222 l13 50 60 0 c33 0 70 -4 83 -8 21 -8 22 -6 22 52
0 69 -15 91 -64 91 -22 0 -39 8 -54 25 -21 24 -27 25 -128 25 l-106 0 32 -36
c21 -24 29 -42 24 -53 -4 -9 -21 -57 -38 -108 -29 -86 -46 -115 -46 -78 0 9
-16 59 -36 111 -35 95 -35 96 -16 118 41 45 39 46 -67 46 -77 0 -103 -4 -115
-16z m92 -36 c-3 -7 -15 -13 -28 -13 -13 0 -25 6 -27 13 -3 8 6 12 27 12 21 0
30 -4 28 -12z m362 -4 c0 -11 -8 -14 -27 -12 -39 4 -42 28 -4 28 21 0 31 -5
31 -16z m-423 -30 c14 -20 17 -43 5 -60 -4 -6 -37 -13 -74 -16 l-68 -4 0 47
c0 28 5 50 13 53 26 12 110 -1 124 -20z m547 20 c12 -4 16 -20 16 -56 0 -47
-1 -50 -22 -44 -13 3 -44 6 -70 6 -51 0 -66 18 -53 61 10 32 83 51 129 33z
m-480 -60 c7 -18 0 -34 -15 -34 -5 0 -9 11 -9 25 0 28 15 34 24 9z m316 -9 c0
-25 -14 -34 -24 -16 -8 12 3 41 15 41 5 0 9 -11 9 -25z m-20 -312 c0 -5 -11
-37 -24 -73 l-24 -65 -15 36 c-8 20 -18 45 -21 57 -12 35 -24 26 -42 -33 -16
-48 -34 -73 -34 -45 0 5 -10 35 -22 67 l-21 58 -21 -62 c-12 -34 -24 -64 -27
-67 -5 -5 -49 112 -49 129 0 3 68 5 150 5 83 0 150 -3 150 -7z m-350 -40 c-1
-27 -17 -31 -45 -13 l-30 20 38 0 c20 0 37 -3 37 -7z m445 -8 c-21 -17 -37
-15 -43 3 -2 8 8 12 30 12 31 -1 32 -1 13 -15z m-455 -59 c0 -2 -3 -11 -6 -20
-5 -14 -9 -14 -35 0 -38 19 -37 24 6 24 19 0 35 -2 35 -4z m489 0 c-2 -2 -19
-11 -36 -20 -32 -16 -33 -16 -33 4 0 16 7 20 37 20 20 0 34 -2 32 -4z m-79
-39 c0 -2 -9 -30 -20 -62 -11 -32 -20 -62 -20 -67 0 -4 103 -8 229 -8 l229 0
-10 -37 c-5 -21 -13 -41 -16 -45 -4 -3 -56 5 -117 18 -60 13 -114 23 -120 23
-5 0 39 -25 98 -55 l109 -55 -16 -25 c-9 -13 -23 -35 -32 -49 l-16 -24 -101
50 -102 51 78 -79 78 -80 -35 -26 c-19 -15 -38 -27 -43 -27 -4 0 -32 24 -61
53 l-54 52 5 -35 c3 -19 9 -56 13 -82 l6 -48 79 0 79 0 0 -45 c0 -47 -9 -56
-30 -30 -7 8 -28 15 -48 15 l-36 0 28 -29 c21 -22 27 -37 24 -62 -3 -35 -28
-54 -28 -21 0 18 -46 62 -64 62 -3 0 -6 -27 -6 -60 0 -59 -1 -60 -27 -60 l-28
0 -1 81 c-1 44 -4 83 -8 86 -3 3 -17 -2 -30 -11 -14 -9 -28 -16 -31 -16 -3 0
-5 20 -5 45 0 44 1 45 31 45 24 0 29 4 25 18 -2 9 -17 64 -32 122 -15 58 -29
107 -31 109 -6 9 -55 -45 -73 -80 -18 -34 -18 -37 -2 -53 13 -13 14 -20 5 -35
-10 -16 -6 -34 27 -109 39 -90 63 -177 75 -265 6 -42 4 -47 -14 -47 -10 0 -26
-3 -35 -6 -13 -5 -16 1 -16 27 0 40 -22 116 -45 156 -9 15 -13 19 -10 8 8 -23
24 -138 25 -172 0 -20 -5 -23 -35 -23 l-35 0 -1 73 c-2 127 -14 143 -23 30
l-8 -103 -29 0 c-24 0 -29 4 -29 23 1 31 18 158 25 182 3 11 -6 -2 -19 -29
-14 -27 -28 -78 -32 -112 l-6 -63 -32 6 c-17 3 -33 8 -35 10 -3 2 1 38 8 80
13 79 54 200 91 273 16 31 18 45 10 55 -8 9 -7 20 1 38 9 20 9 33 0 55 -12 29
-67 90 -74 81 -2 -2 -16 -51 -31 -109 -15 -58 -29 -113 -32 -122 -4 -12 2 -17
23 -20 25 -3 28 -7 31 -45 4 -48 2 -50 -34 -27 -13 9 -27 14 -30 11 -11 -11
-22 -122 -13 -131 20 -22 9 -37 -23 -34 -33 3 -33 4 -36 61 l-3 58 -30 -18
c-19 -11 -29 -25 -29 -41 0 -36 -24 -21 -28 17 -3 25 3 40 24 62 l28 29 -36 0
c-20 0 -41 -7 -48 -15 -21 -26 -30 -17 -30 30 l0 44 77 3 78 3 11 78 10 78
-51 -51 c-28 -27 -55 -50 -59 -50 -5 0 -25 12 -44 26 l-34 27 78 79 79 80
-101 -50 -101 -51 -20 27 c-52 71 -55 66 64 126 60 30 103 55 98 55 -11 1
-187 -36 -217 -45 -18 -5 -24 4 -42 64 l-7 22 230 0 c146 0 231 4 231 10 0 5
-9 33 -20 62 -11 29 -20 56 -20 61 0 4 90 7 200 7 110 0 200 -2 200 -3z m-420
-26 c0 -17 -4 -18 -42 -8 l-43 11 30 7 c49 11 55 10 55 -10z m518 4 c1 -1 -15
-7 -38 -13 -36 -9 -40 -8 -40 10 0 16 5 18 38 12 20 -4 38 -8 40 -9z m-528
-70 c0 -16 -26 -20 -57 -8 -16 6 -15 8 7 14 40 11 50 10 50 -6z m520 4 c10 0
8 -3 -5 -9 -32 -14 -55 -11 -55 6 0 12 6 15 23 10 12 -3 29 -6 37 -7z"/>
<path d="M871 1151 l-23 -68 25 -68 24 -69 22 58 c11 31 21 61 21 67 0 26 18
-6 35 -60 10 -33 21 -58 25 -56 3 2 15 31 25 65 10 33 22 60 27 60 4 0 8 -4 8
-10 0 -5 10 -35 22 -67 l21 -58 24 70 24 70 -23 67 c-12 37 -25 65 -28 63 -4
-2 -15 -31 -25 -65 -10 -33 -21 -60 -25 -60 -4 0 -15 27 -25 60 -10 34 -21 63
-25 65 -3 2 -16 -26 -30 -63 l-23 -67 -21 62 c-12 34 -23 64 -26 67 -3 3 -16
-25 -29 -63z"/>
</g>
</svg>