<?xml version="1.0" encoding="UTF-8"?><svg xmlns="http://www.w3.org/2000/svg" xmlns:xlink="http://www.w3.org/1999/xlink" width="450" height="300">
<rect width="450" height="300" fill="#ed2024"/><rect width="450" height="100" y="100" fill="#fff"/><circle cx="150" cy="150" r="75" fill="#ed2024"/><circle cx="150" cy="150" r="69" fill="#fff"/>
<path id="key" d="m120.707,189.437c3.928,2.22697,8.231,3.16596,11.695,1.81298,6.003-2.34398,8.098-9.43691,3.559-13.9749l-9.153-0.127-1.539-1.53999c-1.526,0-1.439-9.6579-1.449-9.6579-4.377-1.88398-7.696-2.10298-11.252,1.32799-6.961,6.71593-0.272,17.3888,8.139,22.1588zm19.904-22.0158,0,3.61996,3.959,3.95896,1.357,4.07296,0,8.14492c-3.961,9.3699-10.713,12.7829-20.44,12.7819-5.122-0.001-6.706-1.46699-10.301-5.06195l-2.064,2.06498c-2.76-0.004-5.742-0.13-7.414-2.59797-0.785-1.15799-1.249-2.69398-1.007-4.07396,0.063-0.356,2.071-3.87896,2.312-3.56697-6.319-8.20992-7.945-17.1868,0.225-25.0368,2.864-2.75197,6.12-5.26794,10.195-5.74594,2.47-0.289,4.448-0.59199,6.522,1.08299,0.672,0.54199,2.474,3.20097,3.194,3.20097h6.307l7.438-7.43793v-5.82594l9.106-10.009,36.991-36.992,4.412,4.41196-2.036,2.03598,5.204,5.20394-2.037,2.03598,3.055,3.05397,3.507-3.50596,5.656,5.65594,0.905,0.90499-4.978,4.97695-3.281-3.27996-3.505,3.50596,3.28,3.28097-3.733,3.73296-3.28-3.28097-3.168,3.16697,3.281,3.28097-4.299,4.29896-5.431-5.42995,1.811-1.80998-3.167-3.16697-2.376,2.37498-3.168-3.16697-10.181,10.1809v4.18495l-4.355,4.35496-9.107,11.0309zm-37.015,26.2327,1.581-3.21296zm1.593-3.23796,1.766-3.58597z" fill="#ed2024"/><use xlink:href="#key" transform="matrix(-1,0,0,1,300,0)"/></svg>