<?xml version="1.0" encoding="UTF-8" standalone="no"?>
<!-- Created with Inkscape (http://www.inkscape.org/) -->

<svg
   xmlns:dc="http://purl.org/dc/elements/1.1/"
   xmlns:cc="http://creativecommons.org/ns#"
   xmlns:rdf="http://www.w3.org/1999/02/22-rdf-syntax-ns#"
   xmlns:svg="http://www.w3.org/2000/svg"
   xmlns="http://www.w3.org/2000/svg"
   xmlns:sodipodi="http://sodipodi.sourceforge.net/DTD/sodipodi-0.dtd"
   xmlns:inkscape="http://www.inkscape.org/namespaces/inkscape"
   width="654.28571"
   height="431.42856"
   id="svg5570"
   version="1.1"
   inkscape:version="0.48.4 r9939"
   sodipodi:docname="mid.svg">
  <defs
     id="defs5572" />
  <sodipodi:namedview
     id="base"
     pagecolor="#ffffff"
     bordercolor="#666666"
     borderopacity="1.0"
     inkscape:pageopacity="0.0"
     inkscape:pageshadow="2"
     inkscape:zoom="1.4"
     inkscape:cx="285.98275"
     inkscape:cy="264.13588"
     inkscape:document-units="px"
     inkscape:current-layer="layer1"
     showgrid="false"
     fit-margin-top="0"
     fit-margin-left="0"
     fit-margin-right="0"
     fit-margin-bottom="0"
     inkscape:window-width="1600"
     inkscape:window-height="837"
     inkscape:window-x="-8"
     inkscape:window-y="-8"
     inkscape:window-maximized="1" />
  <metadata
     id="metadata5575">
    <rdf:RDF>
      <cc:Work
         rdf:about="">
        <dc:format>image/svg+xml</dc:format>
        <dc:type
           rdf:resource="http://purl.org/dc/dcmitype/StillImage" />
      </cc:Work>
    </rdf:RDF>
  </metadata>
  <g
     inkscape:label="Laag 1"
     inkscape:groupmode="layer"
     id="layer1"
     transform="translate(-107.14286,-265.21933)">
    <rect
       style="fill:#d90d15;fill-opacity:1;fill-rule:evenodd;stroke:none"
       id="rect5386"
       width="654.28571"
       height="431.42856"
       x="107.14286"
       y="265.21933" />
    <path
       style="fill:#fcdd04;fill-opacity:1;stroke:#000000;stroke-width:1px;stroke-linecap:butt;stroke-linejoin:miter;stroke-opacity:1"
       d="m 388.90126,357.94258 4.2857,17.32142 7.1429,6.78571 -1.6071,23.39286 72.3214,0.53572 -2.1429,-23.21429 6.25,-6.96429 5.1786,-16.60713 -12.8571,-2.85714 -6.25,2.14286 -0.625,7.49999 -6.3393,-0.625 0.2678,-9.10714 -12.2321,-0.625 -0.1786,9.19643 -15.8928,-0.26786 -0.1786,-9.375 -11.7857,-0.17857 0.2678,10.08929 -6.875,0.71427 -0.089,-5.35713 -5.7143,-3.92857 z"
       id="path4782-8"
       inkscape:connector-curvature="0" />
    <path
       style="fill:#fcdd04;fill-opacity:1;stroke:#000000;stroke-width:1px;stroke-linecap:butt;stroke-linejoin:miter;stroke-opacity:1"
       d="m 401.93696,356.51401 1.0715,10.62499 4.9107,-1.33929"
       id="path4784-9"
       inkscape:connector-curvature="0" />
    <path
       style="fill:#fcdd04;fill-opacity:1;stroke:#000000;stroke-width:1px;stroke-linecap:butt;stroke-linejoin:miter;stroke-opacity:1"
       d="m 467.38346,356.33544 -1.7857,10.5357 -5.1563,-0.9375"
       id="path4786-2"
       inkscape:connector-curvature="0"
       sodipodi:nodetypes="ccc" />
    <path
       style="fill:#fcdd04;fill-opacity:1;stroke:#000000;stroke-width:1px;stroke-linecap:butt;stroke-linejoin:miter;stroke-opacity:1"
       d="m 393.18696,375.44257 c 27.1447,-3.69105 54.403,-3.63001 81.7858,0.53572"
       id="path4788-7"
       inkscape:connector-curvature="0"
       sodipodi:nodetypes="cc" />
    <path
       style="fill:#fcdd04;fill-opacity:1;stroke:#000000;stroke-width:1px;stroke-linecap:butt;stroke-linejoin:miter;stroke-opacity:1"
       d="m 400.06196,381.96043 c 23.5837,-3.27179 48.472,-2.99482 68.9286,0.625"
       id="path4790-9"
       inkscape:connector-curvature="0"
       sodipodi:nodetypes="cc" />
    <path
       style="fill:#fcdd04;fill-opacity:1;stroke:#000000;stroke-width:1px;stroke-linecap:butt;stroke-linejoin:miter;stroke-opacity:1"
       d="m 382.01036,421.77813 -8.5863,105.30845 -7.5761,8.0812 -5.5559,59.3464 c 16.78,5.4667 35.6854,8.4538 55.3059,10.6066 l 0.3569,-22.8032 c 2.8221,-16.6857 28.9339,-23.6324 36.6964,-0.089 l 0,23.2143 c 18.5427,-1.4625 37.0855,-4.4997 55.6282,-11.1809 l -5.3603,-58.2834 -7.7679,-9.8214 -9.9791,-103.11607 -3.7709,-11.88397 -60.8928,-3.39286 z"
       id="path4792-5"
       inkscape:connector-curvature="0"
       sodipodi:nodetypes="ccccccccccccccc" />
    <path
       style="fill:none;fill-opacity:1;stroke:#000000;stroke-width:1px;stroke-linecap:butt;stroke-linejoin:miter;stroke-opacity:1"
       d="m 431.40126,567.31758 -1.9196,-11.25 8.6607,0.089 -1.6071,11.0714"
       id="path4794-4"
       inkscape:connector-curvature="0" />
    <path
       style="fill:none;fill-opacity:1;stroke:#000000;stroke-width:1px;stroke-linecap:butt;stroke-linejoin:miter;stroke-opacity:1"
       d="m 423.63346,570.39798 -5.9822,-10.4465 -5.9375,4.9107 9.0179,8.0358"
       id="path4796-3"
       inkscape:connector-curvature="0" />
    <path
       style="fill:none;fill-opacity:1;stroke:#000000;stroke-width:1px;stroke-linecap:butt;stroke-linejoin:miter;stroke-opacity:1"
       d="m 444.52626,570.17468 6.0715,-9.375 5.3125,4.7768 -8.3036,7.5447"
       id="path4798-1"
       inkscape:connector-curvature="0" />
    <path
       style="fill:none;fill-opacity:1;stroke:#000000;stroke-width:1px;stroke-linecap:butt;stroke-linejoin:miter;stroke-opacity:1"
       d="m 416.84776,578.83548 -10.2233,-5.8929 -2.4107,8.7054 11.7857,0.5803"
       id="path4800-2"
       inkscape:connector-curvature="0" />
    <path
       style="fill:none;fill-opacity:1;stroke:#000000;stroke-width:1px;stroke-linecap:butt;stroke-linejoin:miter;stroke-opacity:1"
       d="m 415.73166,593.07648 -12.1875,0.089 -0.1339,10.5357"
       id="path4802-3"
       inkscape:connector-curvature="0" />
    <path
       style="fill:none;fill-opacity:1;stroke:#000000;stroke-width:1px;stroke-linecap:butt;stroke-linejoin:miter;stroke-opacity:1"
       d="m 451.30046,578.79368 0.1894,-0.063 10.0384,-5.0507 2.5254,7.8602 -11.3642,0.6945"
       id="path4804-3"
       inkscape:connector-curvature="0" />
    <path
       style="fill:none;fill-opacity:1;stroke:#000000;stroke-width:1px;stroke-linecap:butt;stroke-linejoin:miter;stroke-opacity:1"
       d="m 452.78416,593.72508 11.1748,0.1262 -0.032,10.4172"
       id="path4806-4"
       inkscape:connector-curvature="0" />
    <path
       style="fill:none;fill-opacity:1;stroke:#000000;stroke-width:1px;stroke-linecap:butt;stroke-linejoin:miter;stroke-opacity:1"
       d="m 459.98146,581.69788 -0.1894,12.0587"
       id="path4808-1"
       inkscape:connector-curvature="0" />
    <path
       style="fill:none;fill-opacity:1;stroke:#000000;stroke-width:1px;stroke-linecap:butt;stroke-linejoin:miter;stroke-opacity:1"
       d="m 453.13136,568.31338 4.8614,7.1026"
       id="path4810-1"
       inkscape:connector-curvature="0" />
    <path
       style="fill:none;fill-opacity:1;stroke:#000000;stroke-width:1px;stroke-linecap:butt;stroke-linejoin:miter;stroke-opacity:1"
       d="m 437.60036,560.04278 10.6697,4.4194"
       id="path4812-3"
       inkscape:connector-curvature="0" />
    <path
       style="fill:none;fill-opacity:1;stroke:#000000;stroke-width:1px;stroke-linecap:butt;stroke-linejoin:miter;stroke-opacity:1"
       d="m 419.92806,564.10328 10.2232,-4.0178"
       id="path4814-8"
       inkscape:connector-curvature="0" />
    <path
       style="fill:none;fill-opacity:1;stroke:#000000;stroke-width:1px;stroke-linecap:butt;stroke-linejoin:miter;stroke-opacity:1"
       d="m 415.02976,567.87148 -4.9877,7.1973"
       id="path4816-7"
       inkscape:connector-curvature="0" />
    <path
       style="fill:none;fill-opacity:1;stroke:#000000;stroke-width:1px;stroke-linecap:butt;stroke-linejoin:miter;stroke-opacity:1"
       d="m 407.95866,581.88728 -0.063,11.3643"
       id="path4818-4"
       inkscape:connector-curvature="0" />
    <path
       style="fill:#fcdd04;fill-opacity:1;stroke:#000000;stroke-width:1px;stroke-linecap:butt;stroke-linejoin:miter;stroke-opacity:1"
       d="m 373.27626,526.96048 c 43.3105,11.361 85.4664,9.0524 121.875,-0.8929"
       id="path4820-2"
       inkscape:connector-curvature="0"
       sodipodi:nodetypes="cc" />
    <path
       style="fill:#fcdd04;fill-opacity:1;stroke:#000000;stroke-width:1px;stroke-linecap:butt;stroke-linejoin:miter;stroke-opacity:1"
       d="m 502.97616,535.95698 c -43.8789,13.5503 -89.4677,14.2766 -137.1552,-0.7376"
       id="path4822-7"
       inkscape:connector-curvature="0"
       sodipodi:nodetypes="cc" />
    <path
       sodipodi:type="arc"
       style="fill:#fcdd04;fill-opacity:1;fill-rule:evenodd;stroke:#000000;stroke-opacity:1"
       id="path4824-7"
       sodipodi:cx="465.66965"
       sodipodi:cy="-215.14664"
       sodipodi:rx="20.3125"
       sodipodi:ry="19.776785"
       d="m 485.98215,-215.14664 c 0,10.92242 -9.09422,19.77679 -20.3125,19.77679 -11.21829,0 -20.3125,-8.85437 -20.3125,-19.77679 0,-10.92241 9.09421,-19.77678 20.3125,-19.77678 11.21828,0 20.3125,8.85437 20.3125,19.77678 z"
       transform="translate(-31.812998,696.70528)" />
    <path
       style="fill:#fcdd04;fill-opacity:1;stroke:#000000;stroke-width:1px;stroke-linecap:butt;stroke-linejoin:miter;stroke-opacity:1"
       d="m 431.50786,471.21247 -2.8411,-15.21542 10.8592,0.31567 -3.283,14.64722"
       id="path5336-9"
       inkscape:connector-curvature="0" />
    <path
       style="fill:#fcdd04;fill-opacity:1;stroke:#000000;stroke-width:1px;stroke-linecap:butt;stroke-linejoin:miter;stroke-opacity:1"
       d="m 422.85836,479.54623 -14.7734,-3.34613 0.1262,11.49049 14.8998,-3.59867"
       id="path5338-3"
       inkscape:connector-curvature="0" />
    <path
       style="fill:#fcdd04;fill-opacity:1;stroke:#000000;stroke-width:1px;stroke-linecap:butt;stroke-linejoin:miter;stroke-opacity:1"
       d="m 445.64996,479.60937 14.2053,-3.34613 -0.2526,11.93242 -14.2052,-3.8512"
       id="path5340-1"
       inkscape:connector-curvature="0" />
    <path
       style="fill:#fcdd04;fill-opacity:1;stroke:#000000;stroke-width:1px;stroke-linecap:butt;stroke-linejoin:miter;stroke-opacity:1"
       d="m 432.01286,492.04687 -3.4724,15.34169 10.4172,0.12627 -2.4622,-15.27856"
       id="path5342-9"
       inkscape:connector-curvature="0" />
    <path
       transform="translate(-30.472568,697.69528)"
       sodipodi:type="arc"
       style="fill:#fcdd04;fill-opacity:1;fill-rule:evenodd;stroke:#000000;stroke-width:1;stroke-linecap:round;stroke-miterlimit:4;stroke-opacity:1;stroke-dasharray:none;stroke-dashoffset:0"
       id="path5334-8"
       sodipodi:cx="464.82144"
       sodipodi:cy="-216.12878"
       sodipodi:rx="11.696428"
       sodipodi:ry="10.758928"
       d="m 476.51787,-216.12878 c 0,5.94199 -5.23667,10.75892 -11.69643,10.75892 -6.45976,0 -11.69643,-4.81693 -11.69643,-10.75892 0,-5.942 5.23667,-10.75893 11.69643,-10.75893 6.45976,0 11.69643,4.81693 11.69643,10.75893 z" />
    <path
       style="fill:#fcdd04;fill-opacity:1;stroke:#000000;stroke-width:1px;stroke-linecap:butt;stroke-linejoin:miter;stroke-opacity:1"
       d="m 368.62586,398.29209 9.0913,37.24937 3.1568,4.67196 17.5514,-4.79823 -0.7576,-9.59645 11.6167,-2.52538 0.3788,5.3033 2.7779,4.79823 10.9854,-1.01015 1.0102,-4.67196 0,-5.55584 19.1929,-0.12627 -0.6313,5.42957 2.0203,4.04061 10.7328,1.6415 2.6517,-3.91434 0.8839,-6.31345 12.8794,3.15672 -2.9042,8.20749 18.6878,5.68211 12.0227,-41.03617 -14.9108,-3.39285 -9.1071,1.875 -0.5357,4.64285 -12.5,-1.96428 0.5357,-8.83929 -16.9643,-1.42857 0,8.66072 -23.8393,0 -0.2678,-8.21429 -16.875,1.25 0.5357,8.92857 -13.8691,2.07953 -0.5683,-4.48255 -8.1443,-2.96732 z"
       id="path5362-6"
       inkscape:connector-curvature="0" />
    <path
       style="fill:#fcdd04;fill-opacity:1;stroke:#000000;stroke-width:1px;stroke-linecap:butt;stroke-linejoin:miter;stroke-opacity:1"
       d="m 383.46246,395.00909 1.4521,9.21764 7.2605,-1.76776"
       id="path5364-5"
       inkscape:connector-curvature="0" />
    <path
       style="fill:#fcdd04;fill-opacity:1;stroke:#000000;stroke-width:1px;stroke-linecap:butt;stroke-linejoin:miter;stroke-opacity:1"
       d="m 475.44946,401.95389 7.5446,1.42053 2.1781,-7.92339"
       id="path5366-0"
       inkscape:connector-curvature="0" />
    <path
       style="fill:none;fill-opacity:1;stroke:#000000;stroke-width:1px;stroke-linecap:butt;stroke-linejoin:miter;stroke-opacity:1"
       d="m 377.71716,435.66773 13.132,-3.8512 -1.1995,-10.98541 19.1929,-4.54569 0.3788,7.19734"
       id="path5368-2"
       inkscape:connector-curvature="0" />
    <path
       style="fill:none;fill-opacity:1;stroke:#000000;stroke-width:1px;stroke-linecap:butt;stroke-linejoin:miter;stroke-opacity:1"
       d="m 389.64966,420.83112 8.0812,5.17703"
       id="path5370-8"
       inkscape:connector-curvature="0" />
    <path
       style="fill:none;fill-opacity:1;stroke:#000000;stroke-width:1px;stroke-linecap:butt;stroke-linejoin:miter;stroke-opacity:1"
       d="m 390.84916,431.56399 7.6393,3.8512"
       id="path5372-6"
       inkscape:connector-curvature="0" />
    <path
       style="fill:none;fill-opacity:1;stroke:#000000;stroke-width:1px;stroke-linecap:butt;stroke-linejoin:miter;stroke-opacity:1"
       d="m 409.47386,428.59666 14.9629,-0.88388"
       id="path5374-0"
       inkscape:connector-curvature="0" />
    <path
       style="fill:none;fill-opacity:1;stroke:#000000;stroke-width:1px;stroke-linecap:butt;stroke-linejoin:miter;stroke-opacity:1"
       d="m 424.39236,422.22829 0.089,-6.29465 19.3304,-0.0893 -0.2232,6.20535"
       id="path5376-2"
       inkscape:connector-curvature="0" />
    <path
       style="fill:none;fill-opacity:1;stroke:#000000;stroke-width:1px;stroke-linecap:butt;stroke-linejoin:miter;stroke-opacity:1"
       d="m 442.82986,427.22829 15.3571,2.14285"
       id="path5378-4"
       inkscape:connector-curvature="0" />
    <path
       style="fill:none;fill-opacity:1;stroke:#000000;stroke-width:1px;stroke-linecap:butt;stroke-linejoin:miter;stroke-opacity:1"
       d="m 459.43696,423.03186 0.8036,-6.25 18.75,3.75 -2.9464,10.71428 13.3928,4.01786"
       id="path5380-8"
       inkscape:connector-curvature="0" />
    <path
       style="fill:none;fill-opacity:1;stroke:#000000;stroke-width:1px;stroke-linecap:butt;stroke-linejoin:miter;stroke-opacity:1"
       d="m 469.16916,434.10329 6.7857,-2.94643"
       id="path5382-6"
       inkscape:connector-curvature="0" />
    <path
       style="fill:none;fill-opacity:1;stroke:#000000;stroke-width:1px;stroke-linecap:butt;stroke-linejoin:miter;stroke-opacity:1"
       d="m 471.93696,425.889 6.875,-5.35714"
       id="path5384-5"
       inkscape:connector-curvature="0" />
  </g>
</svg>
