<?xml version="1.0" encoding="UTF-8" standalone="no"?>
<!-- Created with Inkscape (http://www.inkscape.org/) -->

<svg
   xmlns:dc="http://purl.org/dc/elements/1.1/"
   xmlns:cc="http://creativecommons.org/ns#"
   xmlns:rdf="http://www.w3.org/1999/02/22-rdf-syntax-ns#"
   xmlns:svg="http://www.w3.org/2000/svg"
   xmlns="http://www.w3.org/2000/svg"
   xmlns:xlink="http://www.w3.org/1999/xlink"
   xmlns:sodipodi="http://sodipodi.sourceforge.net/DTD/sodipodi-0.dtd"
   xmlns:inkscape="http://www.inkscape.org/namespaces/inkscape"
   width="296.6875"
   height="315.21875"
   id="svg93152"
   version="1.1"
   inkscape:version="0.48.4 r9939"
   sodipodi:docname="Coat_of_arms_of_Amstelveen.svg">
  <defs
     id="defs93154">
    <linearGradient
       inkscape:collect="always"
       xlink:href="#linearGradient4070-8-2-8-8-7"
       id="linearGradient92740"
       x1="-304.99161"
       y1="1088.3398"
       x2="812.02002"
       y2="1088.3398"
       gradientUnits="userSpaceOnUse"
       gradientTransform="matrix(-0.24783099,0,0,0.23352125,403.85446,147.41727)" />
    <linearGradient
       id="linearGradient4070-8-2-8-8-7">
      <stop
         id="stop4072-1-2-6-4-1"
         offset="0"
         style="stop-color:#a3a3a3;stop-opacity:1;" />
      <stop
         id="stop4074-8-0-7-0-4"
         offset="0.14285725"
         style="stop-color:#b0b0b0;stop-opacity:1;" />
      <stop
         style="stop-color:#d1d1d1;stop-opacity:1;"
         offset="0.32142863"
         id="stop4076-6-1-0-3-7" />
      <stop
         id="stop4078-0-2-8-7-6"
         offset="0.5"
         style="stop-color:#bdbdbd;stop-opacity:1;" />
      <stop
         style="stop-color:#e5e5e5;stop-opacity:1;"
         offset="0.75"
         id="stop4080-2-7-1-8-8" />
      <stop
         id="stop4082-4-7-8-3-2"
         offset="0.875"
         style="stop-color:#cccccc;stop-opacity:1;" />
      <stop
         style="stop-color:#cccccc;stop-opacity:1;"
         offset="1"
         id="stop4084-9-0-3-1-3" />
    </linearGradient>
  </defs>
  <sodipodi:namedview
     id="base"
     pagecolor="#ffffff"
     bordercolor="#666666"
     borderopacity="1.0"
     inkscape:pageopacity="0.0"
     inkscape:pageshadow="2"
     inkscape:zoom="1.4"
     inkscape:cx="255.78218"
     inkscape:cy="117.30155"
     inkscape:document-units="px"
     inkscape:current-layer="layer1"
     showgrid="false"
     fit-margin-top="0"
     fit-margin-left="0"
     fit-margin-right="0"
     fit-margin-bottom="0"
     inkscape:window-width="1600"
     inkscape:window-height="837"
     inkscape:window-x="-8"
     inkscape:window-y="-8"
     inkscape:window-maximized="1" />
  <metadata
     id="metadata93157">
    <rdf:RDF>
      <cc:Work
         rdf:about="">
        <dc:format>image/svg+xml</dc:format>
        <dc:type
           rdf:resource="http://purl.org/dc/dcmitype/StillImage" />
        <dc:title />
      </cc:Work>
    </rdf:RDF>
  </metadata>
  <g
     inkscape:label="Laag 1"
     inkscape:groupmode="layer"
     id="layer1"
     transform="translate(-194.5,-266.21875)">
    <path
       inkscape:connector-curvature="0"
       id="path15028-58-75-5"
       d="m 342.76816,581.16835 c 0,-0.3466 -2.31048,-3.67161 -3.75351,-5.40153 -4.48505,-5.37734 -10.00641,-9.25416 -16.76918,-11.77452 -2.80028,-1.04361 -6.56932,-1.94273 -9.89908,-2.36127 -0.77023,-0.0967 -1.59595,-0.20314 -1.83488,-0.23628 -0.23904,-0.0329 -17.99247,-0.0875 -39.45179,-0.11968 l -39.01704,-0.0597 -1.40036,-0.18719 c -2.08232,-0.27837 -3.45434,-0.51496 -5.01355,-0.86465 -5.00375,-1.12223 -10.00577,-3.28848 -14.15684,-6.13075 -2.71073,-1.85608 -5.76417,-4.63557 -7.97625,-7.26078 -4.22048,-5.0083 -7.27305,-11.41692 -8.34935,-17.52842 -0.45263,-2.5711 -0.42666,5.49199 -0.42871,-133.00141 l 0,-129.92626 148.19722,0 148.19709,0 0,129.92626 c 0,138.4934 0.0237,130.43031 -0.42872,133.00141 -1.07629,6.1115 -4.12876,12.52012 -8.34924,17.52843 -2.21208,2.62521 -5.26562,5.4047 -7.97613,7.26078 -4.15593,2.84556 -9.14761,5.0073 -14.15696,6.13075 -1.5592,0.34969 -2.93122,0.58628 -5.01365,0.86465 l -1.40036,0.18719 -39.01693,0.0597 c -21.45943,0.0329 -39.21275,0.0864 -39.45167,0.11968 -0.23915,0.0329 -1.06477,0.13945 -1.835,0.23628 -10.91491,1.3721 -20.06995,6.22481 -26.66836,14.13579 -1.30498,1.56454 -3.50833,4.69969 -3.78207,5.38146 -0.0765,0.18895 -0.26101,0.20325 -0.26101,0.0206 z"
       style="fill:#ff0000;fill-opacity:1" />
    <rect
       style="fill:#1a1a1a;fill-opacity:1;stroke:none"
       id="rect92589"
       width="296.43561"
       height="85.285324"
       x="194.70453"
       y="291.56546" />
    <rect
       style="fill:#1a1a1a;fill-opacity:1;stroke:none"
       id="rect92589-2"
       width="296.43558"
       height="85.285324"
       x="194.64833"
       y="429.01733" />
    <rect
       style="fill:#242424;fill-opacity:1;stroke:none"
       id="rect92591-2"
       width="296.43561"
       height="4.8995371"
       x="194.64452"
       y="429.01938" />
    <rect
       style="fill:#000000;fill-opacity:0.11792453;stroke:none"
       id="rect92593-5"
       width="296.43561"
       height="12.5"
       x="194.64833"
       y="507.92105" />
    <rect
       style="fill:#242424;fill-opacity:1;stroke:none"
       id="rect92591"
       width="296.43564"
       height="4.8995371"
       x="194.7007"
       y="291.5675" />
    <rect
       style="fill:#000000;fill-opacity:0.12264153;stroke:none"
       id="rect92593"
       width="296.43564"
       height="12.5"
       x="194.70457"
       y="370.46927" />
    <rect
       style="fill:#000000;fill-opacity:1;stroke:none"
       id="rect92619"
       width="88.25"
       height="12.5"
       x="369.5563"
       y="39.119923"
       transform="matrix(0.6697594,0.74257818,-0.74257818,0.6697594,0,0)" />
    <rect
       style="fill:#000000;fill-opacity:1;stroke:none"
       id="rect92619-8"
       width="88.25"
       height="12.5"
       x="-89.402092"
       y="407.51526"
       transform="matrix(0.74257818,-0.6697594,0.6697594,0.74257818,0,0)" />
    <rect
       style="fill:#000000;fill-opacity:1;stroke:none"
       id="rect92619-6"
       width="88.25"
       height="12.5"
       x="501.91772"
       y="-113.78832"
       transform="matrix(0.6697594,0.74257818,-0.74257818,0.6697594,0,0)" />
    <rect
       style="fill:#000000;fill-opacity:1;stroke:none"
       id="rect92619-8-9"
       width="88.25"
       height="12.5"
       x="63.506153"
       y="539.8764"
       transform="matrix(0.74257818,-0.6697594,0.6697594,0.74257818,0,0)" />
    <rect
       style="fill:#000000;fill-opacity:1;stroke:none"
       id="rect92619-5"
       width="88.25"
       height="12.5"
       x="437.67282"
       y="-35.564037"
       transform="matrix(0.6697594,0.74257818,-0.74257818,0.6697594,0,0)" />
    <rect
       style="fill:#000000;fill-opacity:1;stroke:none"
       id="rect92619-8-0"
       width="88.25"
       height="12.5"
       x="-14.718126"
       y="475.63153"
       transform="matrix(0.74257818,-0.6697594,0.6697594,0.74257818,0,0)" />
    <rect
       style="fill:#000000;fill-opacity:1;stroke:none"
       id="rect92619-58"
       width="88.25"
       height="12.5"
       x="540.95844"
       y="56.337337"
       transform="matrix(0.6697594,0.74257818,-0.74257818,0.6697594,0,0)" />
    <rect
       style="fill:#000000;fill-opacity:1;stroke:none"
       id="rect92619-8-1"
       width="88.25"
       height="12.5"
       x="-106.61948"
       y="578.91711"
       transform="matrix(0.74257818,-0.6697594,0.6697594,0.74257818,0,0)" />
    <path
       style="fill:url(#linearGradient92740);fill-opacity:1"
       d="m 354.19382,495.93868 c -6.91362,-7.63374 -12.61668,-13.90488 -12.67345,-13.93594 -0.0568,-0.031 -6.40585,5.61082 -14.10909,12.53747 -7.70321,6.92669 -14.04454,12.58138 -14.09185,12.56602 -0.0473,-0.0165 -1.9496,-2.08856 -4.22733,-4.60715 l -4.14135,-4.57929 0.3659,-0.34429 c 0.20134,-0.18936 6.53227,-5.87865 14.06889,-12.64286 l 13.70297,-12.29853 -12.44023,-13.74371 c -6.84213,-7.55907 -12.58311,-13.892 -12.75779,-14.07319 l -0.31755,-0.32941 4.60107,-4.13071 c 2.53059,-2.27184 4.64922,-4.13062 4.70801,-4.13062 0.0589,0 5.79337,6.27874 12.74345,13.95275 6.95007,7.67402 12.6849,13.9685 12.74409,13.98769 0.0591,0.0185 6.42931,-5.64309 14.1558,-12.58288 7.72652,-6.93977 14.09144,-12.61781 14.14428,-12.61781 0.11474,0 8.31459,9.03964 8.31459,9.16623 0,0.0484 -6.34396,5.78554 -14.0977,12.74948 l -14.0977,12.6617 0.76027,0.83843 c 0.41817,0.46114 6.13145,6.76979 12.69615,14.01925 l 11.93586,13.18085 -0.30007,0.27864 c -1.92758,1.78981 -8.89674,7.95733 -8.9916,7.95733 -0.0689,0 -5.78195,-6.24577 -12.69562,-13.87945 z m -0.97666,-138.15539 -12.67748,-14.00576 -1.727,1.55973 c -6.21797,5.61567 -26.29249,23.61135 -26.36934,23.63861 -0.0515,0.0185 -1.96957,-2.03751 -4.26234,-4.56846 l -4.16867,-4.60177 0.37698,-0.35422 c 0.20738,-0.1948 6.51766,-5.86619 14.02288,-12.60306 7.50526,-6.73686 13.6456,-12.29177 13.64524,-12.34425 -4.9e-4,-0.0524 -5.64035,-6.3225 -12.53328,-13.93337 -6.89293,-7.61088 -12.6065,-13.92493 -12.69681,-14.03121 -0.14011,-0.16464 0.51519,-0.80361 4.43078,-4.32104 2.52728,-2.27028 4.63332,-4.13857 4.68013,-4.15174 0.0468,-0.0136 5.78818,6.28033 12.75861,13.9856 6.97044,7.70528 12.71745,14.00958 12.77116,14.00958 0.0538,0 6.42064,-5.67873 14.1488,-12.6194 7.72815,-6.94064 14.09799,-12.60338 14.15518,-12.58386 0.0572,0.0204 1.96658,2.09415 4.24307,4.61026 l 4.13906,4.57469 -0.33086,0.2677 c -0.18195,0.14717 -6.54719,5.85527 -14.14494,12.6845 -12.08479,10.8624 -13.79215,12.44175 -13.63856,12.61572 0.26425,0.29933 24.68915,27.30214 24.96279,27.59753 0.23301,0.25151 0.16396,0.32146 -4.21801,4.26895 -2.4502,2.20728 -4.55278,4.08025 -4.6724,4.16214 -0.18839,0.12901 -1.91364,-1.72497 -12.89499,-13.85687 z m -101.3982,-0.56537 c -6.94729,-7.67393 -12.66809,-13.9383 -12.71285,-13.92081 -0.0674,0.0263 -25.25811,22.61858 -27.42709,24.5979 l -0.67487,0.61584 -3.78447,-4.18048 c -2.08147,-2.29927 -3.96999,-4.38664 -4.19674,-4.63858 l -0.41221,-0.45806 14.08088,-12.64738 14.08089,-12.64738 -0.38973,-0.4023 c -1.06069,-1.09493 -24.9247,-27.52095 -24.98038,-27.66224 -0.0555,-0.14059 8.77033,-8.21939 9.10165,-8.3313 0.0617,-0.0204 5.81736,6.26921 12.79046,13.97786 6.97311,7.70866 12.70957,14.01922 12.74768,14.02348 0.0383,0.004 6.42197,-5.70017 14.18631,-12.67654 7.76438,-6.97636 14.13091,-12.66776 14.14786,-12.64758 0.017,0.0204 1.89429,2.09512 4.17181,4.61098 2.27756,2.51584 4.13628,4.6089 4.13052,4.65124 -0.006,0.0424 -6.33897,5.7529 -14.07376,12.69012 -8.02322,7.19591 -14.03643,12.68128 -14.00074,12.7718 0.0343,0.0873 5.70493,6.38845 12.60118,14.00264 6.89626,7.61419 12.53866,13.88786 12.53866,13.9415 0,0.12021 -9.06687,8.28448 -9.19878,8.28299 -0.0523,-6.9e-4 -5.77899,-6.27973 -12.72628,-13.9537 z m 202.88691,-4.07375 c -6.94643,-7.67346 -12.67115,-13.95288 -12.72165,-13.95427 -0.0506,-0.001 -6.38071,5.64588 -14.06718,12.54948 -7.68649,6.9036 -14.01704,12.55201 -14.06791,12.55201 -0.12762,0 -8.29305,-9.02202 -8.29305,-9.16283 0,-0.0625 6.27319,-5.74759 13.9404,-12.63395 7.66722,-6.88638 13.9404,-12.58975 13.9404,-12.67415 0,-0.0844 -5.65468,-6.39403 -12.566,-14.02139 -6.9113,-7.62736 -12.60741,-13.93365 -12.65804,-14.01397 -0.0566,-0.0898 1.69455,-1.74954 4.54394,-4.30692 l 4.63597,-4.16083 12.60343,13.91274 c 6.93188,7.65201 12.6655,13.99266 12.74138,14.09031 0.10944,0.14059 3.07092,-2.45697 14.26685,-12.51368 7.77092,-6.98015 14.15871,-12.68756 14.19514,-12.68311 0.1454,0.0181 8.26481,9.112 8.24122,9.23071 -0.0133,0.0701 -6.30619,5.76718 -13.9828,12.66022 -7.67658,6.89304 -14.0059,12.57714 -14.06511,12.63132 -0.0812,0.0744 18.08223,20.2866 24.40638,27.15938 l 0.89129,0.96864 -4.59468,4.12864 c -2.52706,2.27076 -4.63189,4.14321 -4.67741,4.16102 -0.0454,0.0185 -5.76617,-6.2459 -12.71257,-13.91937 z"
       id="path92732"
       inkscape:connector-curvature="0" />
    <path
       style="fill:none;stroke:#f2f2f2;stroke-width:1px;stroke-linecap:butt;stroke-linejoin:miter;stroke-opacity:1"
       d="m 316.15428,298.54109 -8.75046,7.91076 25.14649,28.0633 -28.02985,25.26658 7.9375,8.56251"
       id="path92742"
       inkscape:connector-curvature="0" />
    <path
       style="fill:none;stroke:#9a9a9a;stroke-width:1px;stroke-linecap:butt;stroke-linejoin:miter;stroke-opacity:1"
       d="m 365.95574,371.0961 8.75044,-7.91075 -25.14649,-28.06332 28.02986,-25.26659 -7.93751,-8.56248"
       id="path92742-6"
       inkscape:connector-curvature="0" />
    <path
       style="fill:none;stroke:#000000;stroke-width:1.77165353;stroke-linecap:butt;stroke-linejoin:miter;stroke-miterlimit:4;stroke-opacity:0.24528306;stroke-dasharray:none"
       d="m 315.92672,298.15673 25.49999,27.75"
       id="path92762"
       inkscape:connector-curvature="0" />
    <path
       style="fill:none;stroke:#000000;stroke-width:2.0622046;stroke-linecap:butt;stroke-linejoin:miter;stroke-miterlimit:4;stroke-opacity:0.17924529;stroke-dasharray:none"
       d="m 312.57455,368.98661 27.93071,-25.1023"
       id="path92782"
       inkscape:connector-curvature="0" />
    <path
       style="fill:none;stroke:#ececec;stroke-width:1px;stroke-linecap:butt;stroke-linejoin:miter;stroke-opacity:1"
       d="M 366.392,371.38416 340.32847,343.00043"
       id="path92784"
       inkscape:connector-curvature="0"
       sodipodi:nodetypes="cc" />
    <path
       style="fill:none;stroke:#f9f9f9;stroke-width:1px;stroke-linecap:butt;stroke-linejoin:miter;stroke-opacity:1"
       d="m 369.98921,301.21923 -28.8125,25.625"
       id="path92786"
       inkscape:connector-curvature="0" />
    <path
       style="fill:none;stroke:#f2f2f2;stroke-width:1px;stroke-linecap:butt;stroke-linejoin:miter;stroke-opacity:1"
       d="m 214.75341,297.86 -8.75043,7.91076 25.14648,28.0633 -28.02986,25.26659 7.93751,8.56251"
       id="path92742-5"
       inkscape:connector-curvature="0" />
    <path
       style="fill:none;stroke:#9a9a9a;stroke-width:1px;stroke-linecap:butt;stroke-linejoin:miter;stroke-opacity:1"
       d="m 264.55489,370.41503 8.75044,-7.91075 -25.14649,-28.06334 28.02987,-25.26659 -7.93751,-8.56248"
       id="path92742-6-5"
       inkscape:connector-curvature="0" />
    <path
       style="fill:none;stroke:#000000;stroke-width:1.77165353;stroke-linecap:butt;stroke-linejoin:miter;stroke-miterlimit:4;stroke-opacity:0.24528306;stroke-dasharray:none"
       d="m 214.52585,297.47564 25.50001,27.75"
       id="path92762-2"
       inkscape:connector-curvature="0" />
    <path
       style="fill:none;stroke:#000000;stroke-width:2.0622046;stroke-linecap:butt;stroke-linejoin:miter;stroke-miterlimit:4;stroke-opacity:0.17924529;stroke-dasharray:none"
       d="m 211.17368,368.30554 27.93073,-25.10232"
       id="path92782-5"
       inkscape:connector-curvature="0" />
    <path
       style="fill:none;stroke:#ececec;stroke-width:1px;stroke-linecap:butt;stroke-linejoin:miter;stroke-opacity:1"
       d="M 264.99114,370.70306 238.92763,342.31934"
       id="path92784-8"
       inkscape:connector-curvature="0"
       sodipodi:nodetypes="cc" />
    <path
       style="fill:none;stroke:#f9f9f9;stroke-width:1px;stroke-linecap:butt;stroke-linejoin:miter;stroke-opacity:1"
       d="m 268.58836,300.53814 -28.81249,25.625"
       id="path92786-3"
       inkscape:connector-curvature="0" />
    <path
       style="fill:none;stroke:#f2f2f2;stroke-width:1px;stroke-linecap:butt;stroke-linejoin:miter;stroke-opacity:1"
       d="m 417.58846,293.8078 -8.75043,7.91076 25.14648,28.0633 -28.02986,25.26658 7.93751,8.56252"
       id="path92742-5-2"
       inkscape:connector-curvature="0" />
    <path
       style="fill:none;stroke:#9a9a9a;stroke-width:1px;stroke-linecap:butt;stroke-linejoin:miter;stroke-opacity:1"
       d="m 467.38994,366.36282 8.75044,-7.91075 -25.14649,-28.06333 28.02987,-25.26658 -7.93751,-8.56249"
       id="path92742-6-5-7"
       inkscape:connector-curvature="0" />
    <path
       style="fill:none;stroke:#000000;stroke-width:1.77165353;stroke-linecap:butt;stroke-linejoin:miter;stroke-miterlimit:4;stroke-opacity:0.24528306;stroke-dasharray:none"
       d="m 417.3609,293.42344 25.50002,27.75"
       id="path92762-2-8"
       inkscape:connector-curvature="0" />
    <path
       style="fill:none;stroke:#000000;stroke-width:2.0622046;stroke-linecap:butt;stroke-linejoin:miter;stroke-miterlimit:4;stroke-opacity:0.17924529;stroke-dasharray:none"
       d="m 414.00873,364.25333 27.93073,-25.10231"
       id="path92782-5-5"
       inkscape:connector-curvature="0" />
    <path
       style="fill:none;stroke:#ececec;stroke-width:1px;stroke-linecap:butt;stroke-linejoin:miter;stroke-opacity:1"
       d="M 467.82619,366.65086 441.76268,338.26714"
       id="path92784-8-2"
       inkscape:connector-curvature="0"
       sodipodi:nodetypes="cc" />
    <path
       style="fill:none;stroke:#f9f9f9;stroke-width:1px;stroke-linecap:butt;stroke-linejoin:miter;stroke-opacity:1"
       d="m 471.42341,296.48594 -28.81249,25.625"
       id="path92786-3-7"
       inkscape:connector-curvature="0" />
    <path
       style="fill:none;stroke:#f2f2f2;stroke-width:1px;stroke-linecap:butt;stroke-linejoin:miter;stroke-opacity:1"
       d="m 317.03222,436.67857 -8.75044,7.91077 25.14649,28.06329 -28.02986,25.26659 7.93751,8.56249"
       id="path92742-5-29"
       inkscape:connector-curvature="0" />
    <path
       style="fill:none;stroke:#9a9a9a;stroke-width:1px;stroke-linecap:butt;stroke-linejoin:miter;stroke-opacity:1"
       d="m 366.8337,509.23357 8.75044,-7.91075 -25.14649,-28.06331 28.02987,-25.26659 -7.93751,-8.56248"
       id="path92742-6-5-76"
       inkscape:connector-curvature="0" />
    <path
       style="fill:none;stroke:#000000;stroke-width:1.77165353;stroke-linecap:butt;stroke-linejoin:miter;stroke-miterlimit:4;stroke-opacity:0.24528306;stroke-dasharray:none"
       d="m 316.80466,436.29422 25.50001,27.74999"
       id="path92762-2-3"
       inkscape:connector-curvature="0" />
    <path
       style="fill:none;stroke:#000000;stroke-width:2.0622046;stroke-linecap:butt;stroke-linejoin:miter;stroke-miterlimit:4;stroke-opacity:0.17924529;stroke-dasharray:none"
       d="M 313.45249,507.12408 341.38322,482.0218"
       id="path92782-5-1"
       inkscape:connector-curvature="0" />
    <path
       style="fill:none;stroke:#ececec;stroke-width:1px;stroke-linecap:butt;stroke-linejoin:miter;stroke-opacity:1"
       d="M 367.26995,509.52163 341.20644,481.13792"
       id="path92784-8-5"
       inkscape:connector-curvature="0"
       sodipodi:nodetypes="cc" />
    <path
       style="fill:none;stroke:#f9f9f9;stroke-width:1px;stroke-linecap:butt;stroke-linejoin:miter;stroke-opacity:1"
       d="m 370.86717,439.35671 -28.81249,25.625"
       id="path92786-3-9"
       inkscape:connector-curvature="0" />
    <path
       sodipodi:nodetypes="cccccccccccc"
       inkscape:connector-curvature="0"
       id="path15042-78-3-4"
       d="m 194.64209,266.32778 7.56037,6.56791 0,253.10918 c 0.54478,12.61796 12.95757,26.5683 29.88205,28.88954 l 79.07999,0 c 9.47759,0 31.76467,8.99977 31.76467,17.52009 l -0.10129,8.84087 c -8.63816,-13.96682 -20.83027,-18.74018 -32.45355,-19.90851 l -0.0114,0 -78.28399,0 c -18.83549,-1.68475 -36.39409,-16.35114 -37.44236,-35.34199 z"
       style="opacity:0.13095236;fill:#ffffff;fill-opacity:1;stroke:#000000;stroke-width:0.09211652px;stroke-linecap:butt;stroke-linejoin:miter;stroke-opacity:0.33018865" />
    <path
       sodipodi:nodetypes="cccccccccccc"
       inkscape:connector-curvature="0"
       id="path15042-7-9-4-9"
       d="m 491.04245,266.32614 -7.56037,6.5678 0,253.10928 c -0.54478,12.61787 -12.95759,26.5682 -29.88217,28.88933 l -79.07998,0 c -9.4776,0 -31.76468,8.99978 -31.76468,17.52019 l 0.1013,8.84087 c 8.63838,-13.96671 20.83047,-18.74007 32.45364,-19.90851 l 0.0114,0 78.28412,0 c 18.83544,-1.68462 36.39413,-16.35123 37.44242,-35.34188 z"
       style="opacity:0.61507933;fill:#000000;fill-opacity:0.31603777;stroke:#000000;stroke-width:0.09211652px;stroke-linecap:butt;stroke-linejoin:miter;stroke-opacity:0" />
    <path
       inkscape:connector-curvature="0"
       id="path15070-7-3-5"
       d="m 491.05171,266.32778 -7.5691,6.56791 -281.28015,0 -7.56037,-6.56791 z"
       style="opacity:0.81349206;fill:#ffffff;fill-opacity:0.41509435;stroke:#000000;stroke-width:0.09211652px;stroke-linecap:butt;stroke-linejoin:miter;stroke-opacity:0.41037735" />
  </g>
</svg>
