<?xml version="1.0" encoding="UTF-8" standalone="no"?>
<!-- Created with Inkscape (http://www.inkscape.org/) -->

<svg
   xmlns:dc="http://purl.org/dc/elements/1.1/"
   xmlns:cc="http://creativecommons.org/ns#"
   xmlns:rdf="http://www.w3.org/1999/02/22-rdf-syntax-ns#"
   xmlns:svg="http://www.w3.org/2000/svg"
   xmlns="http://www.w3.org/2000/svg"
   xmlns:sodipodi="http://sodipodi.sourceforge.net/DTD/sodipodi-0.dtd"
   xmlns:inkscape="http://www.inkscape.org/namespaces/inkscape"
   width="329.40875"
   height="217.28375"
   id="svg12785"
   version="1.1"
   inkscape:version="0.48.4 r9939"
   sodipodi:docname="Venlo_vlag.svg">
  <defs
     id="defs12787" />
  <sodipodi:namedview
     id="base"
     pagecolor="#ffffff"
     bordercolor="#666666"
     borderopacity="1.0"
     inkscape:pageopacity="0.0"
     inkscape:pageshadow="2"
     inkscape:zoom="2.8"
     inkscape:cx="61.075113"
     inkscape:cy="126.87156"
     inkscape:document-units="px"
     inkscape:current-layer="layer1"
     showgrid="false"
     fit-margin-top="0"
     fit-margin-left="0"
     fit-margin-right="0"
     fit-margin-bottom="0"
     inkscape:window-width="1600"
     inkscape:window-height="837"
     inkscape:window-x="-8"
     inkscape:window-y="-8"
     inkscape:window-maximized="1" />
  <metadata
     id="metadata12790">
    <rdf:RDF>
      <cc:Work
         rdf:about="">
        <dc:format>image/svg+xml</dc:format>
        <dc:type
           rdf:resource="http://purl.org/dc/dcmitype/StillImage" />
        <dc:title />
      </cc:Work>
    </rdf:RDF>
  </metadata>
  <g
     inkscape:label="Laag 1"
     inkscape:groupmode="layer"
     id="layer1"
     transform="translate(-81,-198)">
    <rect
       style="fill:#da131b;fill-opacity:1;fill-rule:evenodd;stroke:#000000;stroke-width:0;stroke-linecap:square;stroke-linejoin:round;stroke-miterlimit:4;stroke-opacity:0;stroke-dasharray:none;stroke-dashoffset:0"
       id="rect2828"
       width="329.27478"
       height="109.61285"
       x="81.064323"
       y="198.06503" />
    <rect
       style="fill:#144bb1;fill-opacity:1;fill-rule:evenodd;stroke:#000000;stroke-width:0;stroke-linecap:square;stroke-linejoin:round;stroke-miterlimit:4;stroke-opacity:0;stroke-dasharray:none;stroke-dashoffset:0"
       id="rect2828-1"
       width="329.27478"
       height="109.61285"
       x="81.08947"
       y="305.61792" />
    <path
       inkscape:connector-curvature="0"
       style="fill:#fcdd09;fill-opacity:1;stroke:#000000;stroke-width:1px;stroke-linecap:butt;stroke-linejoin:miter;stroke-opacity:1"
       d="m 237.79336,341.24716 c -8.913,7.05194 -18.3605,12.17866 -28.2014,15.8876 4.7878,0.68179 8.8817,1.48265 10.4449,2.71761 -11.8535,7.45076 -23.9108,16.61419 -35.3387,20.48662 -6.4709,2.05204 -11.3061,1.29811 -11.3154,-7.73473 l 0,-54.35228 -3.4816,-0.83618 0,86.12742 c 1.8107,-3.79562 4.4459,-7.9829 12.0116,-12.33379 14.1508,-6.20086 26.2701,-18.09373 39.1686,-27.80326 0.9301,3.41445 0.2166,6.82886 -0.174,10.2433 7.4357,-10.99127 12.5681,-21.95747 16.886,-32.40231 z"
       id="path2894"
       sodipodi:nodetypes="cccccccccccc" />
    <path
       inkscape:connector-curvature="0"
       style="fill:#000000;stroke:#000000;stroke-width:1px;stroke-linecap:butt;stroke-linejoin:miter;stroke-opacity:0"
       d="m 221.19596,362.3253 6.8773,-6.40759 -6.7595,7.82704 -0.1178,-1.41945 z"
       id="path3692" />
    <path
       inkscape:connector-curvature="0"
       style="fill:#000000;stroke:#000000;stroke-width:1px;stroke-linecap:butt;stroke-linejoin:miter;stroke-opacity:0"
       d="m 221.29896,359.95689 2.7418,-2.45631 -5.1354,2.29954 2.3936,0.15668 z"
       id="path3694" />
    <path
       inkscape:connector-curvature="0"
       style="fill:#000000;stroke:#000000;stroke-width:1px;stroke-linecap:butt;stroke-linejoin:miter;stroke-opacity:0"
       d="m 223.25746,361.21117 c 0.5139,1.19022 0.3366,3.371 0.4352,5.0694 0.5375,-1.90402 0.9448,-4.09736 0.6093,-6.27142 l -1.0445,1.20202 z"
       id="path3696"
       sodipodi:nodetypes="cccc" />
    <path
       inkscape:connector-curvature="0"
       style="fill:#000000;stroke:#000000;stroke-width:1px;stroke-linecap:butt;stroke-linejoin:miter;stroke-opacity:0"
       d="m 224.76316,359.11722 c 0.4756,1.03153 0.3116,2.92152 0.4028,4.39348 0.4974,-1.65016 0.8743,-3.55104 0.5638,-5.43523 l -0.9666,1.04175 z"
       id="path3696-7"
       sodipodi:nodetypes="cccc" />
    <path
       inkscape:connector-curvature="0"
       style="fill:#000000;stroke:#000000;stroke-width:1px;stroke-linecap:butt;stroke-linejoin:miter;stroke-opacity:0"
       d="m 226.46046,357.50799 c 0.3797,0.78356 0.2487,2.21924 0.3216,3.33735 0.3971,-1.25349 0.6981,-2.69743 0.4502,-4.12868 l -0.7718,0.79133 z"
       id="path3696-7-4"
       sodipodi:nodetypes="cccc" />
    <path
       inkscape:connector-curvature="0"
       style="fill:#000000;stroke:#000000;stroke-width:1px;stroke-linecap:butt;stroke-linejoin:miter;stroke-opacity:0"
       d="m 169.90116,398.5261 c 1.9854,-2.81224 4.4848,-5.93307 7.3985,-9.30261 -2.0373,1.97537 -3.7658,3.33263 -6.4411,6.585 l -0.9574,-12.75189 0,15.4695 z"
       id="path3742"
       sodipodi:nodetypes="ccccc" />
    <path
       inkscape:connector-curvature="0"
       style="fill:#fcdd09;fill-opacity:1;stroke:#000000;stroke-width:1px;stroke-linecap:butt;stroke-linejoin:miter;stroke-opacity:1"
       d="m 102.00886,341.24716 c 8.913,7.05194 18.3605,12.17866 28.2014,15.8876 -4.7878,0.68179 -8.8817,1.48265 -10.4449,2.71761 11.8535,7.45076 23.9108,16.61419 35.3387,20.48662 6.4709,2.05204 11.3061,1.29811 11.3154,-7.73473 l 0,-54.35228 3.4817,-0.83618 0,86.12742 c -1.8108,-3.79562 -4.446,-7.9829 -12.0118,-12.33379 -14.1507,-6.20086 -26.27,-18.09373 -39.1685,-27.80326 -0.9301,3.41445 -0.2166,6.82886 0.174,10.2433 -7.4357,-10.99127 -12.5681,-21.95747 -16.886,-32.40231 z"
       id="path2894-0"
       sodipodi:nodetypes="cccccccccccc" />
    <path
       inkscape:connector-curvature="0"
       style="fill:#000000;stroke:#000000;stroke-width:1px;stroke-linecap:butt;stroke-linejoin:miter;stroke-opacity:0"
       d="m 118.60626,362.3253 -6.8773,-6.40759 6.7595,7.82704 0.1178,-1.41945 z"
       id="path3692-9" />
    <path
       inkscape:connector-curvature="0"
       style="fill:#000000;stroke:#000000;stroke-width:1px;stroke-linecap:butt;stroke-linejoin:miter;stroke-opacity:0"
       d="m 118.50326,359.95689 -2.7418,-2.45631 5.1354,2.29954 -2.3936,0.15668 z"
       id="path3694-4" />
    <path
       inkscape:connector-curvature="0"
       style="fill:#000000;stroke:#000000;stroke-width:1px;stroke-linecap:butt;stroke-linejoin:miter;stroke-opacity:0"
       d="m 116.54476,361.21117 c -0.5139,1.19022 -0.3366,3.371 -0.4352,5.0694 -0.5375,-1.90402 -0.9448,-4.09736 -0.6093,-6.27142 l 1.0445,1.20202 z"
       id="path3696-8"
       sodipodi:nodetypes="cccc" />
    <path
       inkscape:connector-curvature="0"
       style="fill:#000000;stroke:#000000;stroke-width:1px;stroke-linecap:butt;stroke-linejoin:miter;stroke-opacity:0"
       d="m 115.03906,359.11722 c -0.4756,1.03153 -0.3116,2.92152 -0.4028,4.39348 -0.4974,-1.65016 -0.8743,-3.55104 -0.5638,-5.43523 l 0.9666,1.04175 z"
       id="path3696-7-8"
       sodipodi:nodetypes="cccc" />
    <path
       inkscape:connector-curvature="0"
       style="fill:#000000;stroke:#000000;stroke-width:1px;stroke-linecap:butt;stroke-linejoin:miter;stroke-opacity:0"
       d="m 113.34176,357.50799 c -0.3797,0.78356 -0.2488,2.21924 -0.3216,3.33735 -0.3971,-1.25349 -0.6981,-2.69743 -0.4502,-4.12868 l 0.7718,0.79133 z"
       id="path3696-7-4-2"
       sodipodi:nodetypes="cccc" />
    <path
       inkscape:connector-curvature="0"
       style="fill:#000000;stroke:#000000;stroke-width:1px;stroke-linecap:butt;stroke-linejoin:miter;stroke-opacity:0"
       d="m 169.90116,398.5261 c -1.9855,-2.81224 -4.4849,-5.93307 -7.3986,-9.30261 2.0373,1.97537 3.7658,3.33263 6.4411,6.585 l 0.9575,-12.75189 0,15.4695 z"
       id="path3742-4"
       sodipodi:nodetypes="ccccc" />
    <path
       inkscape:connector-curvature="0"
       style="fill:#fcdd09;fill-opacity:1;stroke:#000000;stroke-width:1px;stroke-linecap:butt;stroke-linejoin:miter;stroke-opacity:0"
       d="m 167.17076,319.10024 2.7304,-0.9005 2.7853,0.6794 -2.089,81.73742 -0.6963,1.72464 -0.8269,-2.03821 0.043,-9.25033 -1.947,-71.95242 z"
       id="path3784" />
    <path
       inkscape:connector-curvature="0"
       style="fill:#fcdd09;fill-opacity:1;stroke:#000000;stroke-width:1px;stroke-linecap:butt;stroke-linejoin:miter;stroke-opacity:1"
       d="m 173.41786,326.38031 -6.9241,0.0369 c -0.9387,-0.86179 -0.8351,-1.93317 -0.031,-2.43901 l 6.9549,0.0369 c 1.9427,1.12113 0.5595,2.63817 0,2.36511 z"
       id="path3808"
       sodipodi:nodetypes="ccccc" />
    <path
       inkscape:connector-curvature="0"
       style="fill:#fcdd09;fill-opacity:1;stroke:#000000;stroke-width:1px;stroke-linecap:butt;stroke-linejoin:miter;stroke-opacity:1"
       d="m 176.84266,329.20082 1.7408,1.80305 c -0.6899,1.06021 -0.9309,3.2663 0.1741,4.12866 1.4485,1.05691 2.4696,0.27696 2.8071,-1.64624 -0.021,-2.06117 -1.1904,-3.1201 -2.9812,-2.4563 l -1.5014,-2.24726 c 5.6251,-5.02968 10.2391,5.88523 4.7002,9.64232 -5.2198,2.58636 -8.4619,-4.78633 -4.9396,-9.22423 z"
       id="path3810"
       sodipodi:nodetypes="cccccccc" />
    <path
       inkscape:connector-curvature="0"
       style="fill:#fcdd09;fill-opacity:1;stroke:#000000;stroke-width:1px;stroke-linecap:butt;stroke-linejoin:miter;stroke-opacity:1"
       d="m 174.88426,325.3596 c 1.6273,0.55817 3.8168,2.82744 2.7635,4.36384 -0.9434,1.19437 -2.8109,-2.30666 -3.3511,-3.4754 l -1.4797,0.65327 c -0.029,2.85837 3.023,6.43357 5.2008,6.4282 1.5628,0.3774 2.6171,-2.03605 2.5894,-3.2925 0.3334,-2.63087 -2.6922,-6.66542 -6.5933,-6.63724 l 1.0009,2.06435 -0.1305,-0.10446 0,0 z"
       id="path3812"
       sodipodi:nodetypes="cccccccccc" />
    <path
       inkscape:connector-curvature="0"
       style="fill:#fcdd09;fill-opacity:1;stroke:#000000;stroke-width:1px;stroke-linecap:butt;stroke-linejoin:miter;stroke-opacity:1"
       d="m 181.17296,331.26517 c -1.1026,-0.73139 -2.1614,-1.5682 -3.6557,-1.35879 l -0.8269,-1.41108 c 0.9881,-0.97701 3.0099,-1.50296 4.8308,-0.57488 l -0.3482,3.34475 z"
       id="path3814"
       sodipodi:nodetypes="ccccc" />
    <path
       inkscape:connector-curvature="0"
       style="fill:#fcdd09;fill-opacity:1;stroke:#000000;stroke-width:1px;stroke-linecap:butt;stroke-linejoin:miter;stroke-opacity:0"
       d="m 180.59086,329.93248 c 0.5472,0.2754 1.0264,0.98357 1.2784,1.594 l 0.457,-0.41809 -0.2339,-1.80304 c -0.406,-0.40991 -0.8503,-0.69509 -1.3709,-0.82965 l -0.3754,0.46381 0.2448,0.99297 z"
       id="path3816"
       sodipodi:nodetypes="ccccccc" />
    <path
       inkscape:connector-curvature="0"
       style="fill:#fcdd09;fill-opacity:1;stroke:#000000;stroke-width:1px;stroke-linecap:butt;stroke-linejoin:miter;stroke-opacity:1"
       d="m 129.17016,207.93975 c 1.4194,-2.67216 -0.9791,-4.92935 -4.4992,-5.72845 1.6469,1.9684 2.4681,3.90229 0.9839,5.7398 -0.9004,-0.24517 -1.7516,-0.66938 -3.0437,0.50595 -1.0174,-0.6879 -2.0908,-0.46967 -3.1814,0.0253 -2.9969,-0.46756 -6.4031,-1.45315 -8.0223,-0.17706 1.7149,1.4434 3.5646,2.81831 3.7036,5.06201 -2.2931,1.69817 -2.6113,3.47889 -0.4989,5.36123 -2.6394,1.38172 -2.7766,3.16685 -2.9832,4.94078 -2.031,3.07266 -3.8284,2.36955 -5.6258,1.66438 0.5364,2.55003 2.4287,4.05739 6.2759,4.06146 1.2537,1.37675 2.5487,2.08597 3.9672,0.79903 l 0.8072,5.89072 c -4.6789,0.4289 -8.2716,1.93627 -7.3517,7.92409 0.7706,-1.58825 1.8686,-2.91922 5.0166,-2.63963 1.2566,0.42821 2.4696,1.56278 3.8101,0.63416 0.1929,2.77854 1.0976,5.68407 3.4692,8.85133 0.1854,2.38376 1.5491,3.92881 3.7134,4.90413 -11.3174,16.72265 -19.3738,0.0815 -9.5832,0.70747 -6.316,-6.13927 -11.9304,4.29162 -4.9454,9.60764 5.539,3.34649 11.5165,-0.3972 17.5059,-4.33369 -1.9978,4.19789 -3.5126,8.49307 -9.1079,11.96639 3.0234,0.0686 6.0072,-0.30885 8.8462,-2.32124 l -6.9095,8.89236 c -3.6304,3.84098 -7.4166,6.97481 -12.7441,3.10807 2.7681,-2.41702 2.3968,-4.96529 2.8056,-7.48094 l -3.5045,2.54454 c 1.0092,-5.2773 -0.6322,-8.92874 -7.7997,-9.19065 2.8534,3.29726 3.6271,6.64786 2.0558,10.05861 -1.6441,-0.93449 -1.6641,0.18654 -1.9046,1.02846 -6.5786,-0.094 -7.9509,3.6715 -7.254,6.34521 1.5657,-0.65535 2.3654,-2.11413 5.2723,-1.36256 0.2852,0.59234 -0.34,1.14662 1.0611,1.78561 -2.2985,1.06995 -2.9105,2.37127 -2.0803,3.87046 l 0.2753,0.96128 c -4.6576,1.88093 -6.6819,4.75858 -4.2582,9.31979 2.5207,-2.22245 5.2346,-3.47991 8.2371,-3.29649 -0.579,0.60899 -1.0814,1.22116 -0.1172,1.89466 2.0927,0.94977 4.6007,-0.56772 7.1867,-2.54891 0.9027,-0.48951 5.5723,-2.33706 9.6037,1.66783 2.7796,-1.0568 3.4985,-3.55539 4.5442,-5.82531 1.5802,-1.04201 3.128,-2.08539 6.5483,-3.05048 -0.035,2.07367 1.9264,2.44232 4.1936,2.54975 1.8038,1.50592 2.0897,3.10728 1.0425,4.79248 4.337,-1.82726 4,-4.8867 4.4945,-7.72694 -0.6654,-8.22981 6.4561,-9.5291 11.3365,-12.82301 2.1745,2.83026 11.3167,4.72632 18.1482,6.93221 4.8669,1.24594 9.714,2.55989 13.4058,7.84204 3.2436,5.2851 6.6866,7.34334 10.1074,9.762 l 8.7457,-8.8156 c -9.1461,-7.89316 -16.1089,-16.86288 -17.4783,-28.59082 2.2525,-2.1523 3.559,-4.67138 1.5288,-8.4841 2.9004,1.96915 4.3546,0.0487 5.9498,-1.49254 -0.2665,-3.70052 1.5705,-5.92926 3.0312,-8.4213 0.6952,-2.45092 1.6646,-4.89037 -0.3758,-7.45564 l -1.1187,1.85279 c 1.2019,-3.94222 3.9702,-9.59303 -2.6551,-11.19174 l -0.079,-1.42798 -1.4243,-1.32591 c 1.1175,-4.45754 4.0963,-5.93518 6.2321,-8.76238 -2.0721,-1.71522 -3.21,-0.64443 -4.2318,0.77288 -2.3103,-1.51887 -4.2815,-0.0662 -4.0053,2.52361 -0.7471,1.06372 -4.9111,1.1307 -3.85,-2.69369 1.6657,0.37962 3.5708,-0.85374 1.3247,-2.47736 2.3716,-2.54482 -1.7992,-4.05448 -2.4258,-1.36778 -2.7736,-1.36618 -3.1574,1.70731 -1.3247,2.47736 -1.6724,2.22002 -5.0404,2.10457 -5.1996,-1.06269 2.0947,-0.48775 2.0925,-3.86086 -0.9107,-3.45202 -0.8078,-2.986 -2.2895,-2.61698 -3.764,-2.28406 0.6173,3.14126 1.4295,6.29067 0.8399,9.38148 l 11.1143,4.94191 -11.1108,-4.99774 -12.1174,5.53782 c -0.4096,0.48242 -0.6407,0.92238 0.5281,1.02947 -2.0716,2.16769 -1.1376,4.60394 -0.1399,7.0459 l 0.9409,0.0953 c 0.1372,0.91577 0.3055,1.81392 1.4033,2.18538 l 0.4504,-2.49965 c 3.6774,-0.55472 6.5422,2.26647 6.1157,6.35597 -0.962,5.10255 -3.2074,7.5086 -9.6421,5.69726 l -0.2405,-2.80837 c -1.0629,0.5268 -2.1055,1.68917 -1.7143,1.88715 l -1.0036,-0.99338 c 0.071,2.58333 -1.7396,4.27359 -2.9313,6.25762 -1.4268,-1.51768 -2.9102,-2.73309 -4.8018,-1.76779 -4.6193,-0.38057 -8.0978,-1.58568 -8.4447,-5.05417 -2.665,-0.79305 -4.1924,1.23471 -3.9918,1.40018 l -6.2537,-13.69332 -0.3719,-11.2088 2.2151,0.54033 c 2.1941,0.83143 3.3148,-1.13236 4.7552,-2.26373 2.8281,-0.83815 4.4032,-2.63123 3.9208,-5.99239 -1.5597,2.75544 -3.8788,2.49744 -6.1786,2.31616 -0.5175,-1.91305 -1.2806,-3.77901 -4.3134,-5.20949 z"
       id="path3822"
       sodipodi:nodetypes="cccccccccccccccccccccccccccccccccccccccccccccccccccccccccccccccccccccccccccccccccccccccccccccc" />
    <path
       sodipodi:type="arc"
       style="fill:#000000;fill-opacity:1;fill-rule:evenodd;stroke:#000000;stroke-width:0;stroke-linecap:square;stroke-linejoin:round;stroke-miterlimit:4;stroke-opacity:0;stroke-dasharray:none;stroke-dashoffset:0"
       id="path3824"
       sodipodi:cx="453.56482"
       sodipodi:cy="25.374062"
       sodipodi:rx="0.57452428"
       sodipodi:ry="0.61871845"
       d="m 454.13934,25.374062 c 0,0.341708 -0.25722,0.618718 -0.57452,0.618718 -0.3173,0 -0.57452,-0.27701 -0.57452,-0.618718 0,-0.341709 0.25722,-0.618719 0.57452,-0.618719 0.3173,0 0.57452,0.27701 0.57452,0.618719 z"
       transform="matrix(1.3354192,0.05582439,-0.07810702,1.2631066,-430.79289,156.19661)" />
    <path
       transform="matrix(1.3354192,0.05582439,-0.07810702,1.2631066,-421.825,158.53031)"
       sodipodi:type="arc"
       style="fill:#000000;fill-opacity:1;fill-rule:evenodd;stroke:#000000;stroke-width:0;stroke-linecap:square;stroke-linejoin:round;stroke-miterlimit:4;stroke-opacity:0;stroke-dasharray:none;stroke-dashoffset:0"
       id="path3824-5"
       sodipodi:cx="453.56482"
       sodipodi:cy="25.374062"
       sodipodi:rx="0.57452428"
       sodipodi:ry="0.61871845"
       d="m 454.13934,25.374062 c 0,0.341708 -0.25722,0.618718 -0.57452,0.618718 -0.3173,0 -0.57452,-0.27701 -0.57452,-0.618718 0,-0.341709 0.25722,-0.618719 0.57452,-0.618719 0.3173,0 0.57452,0.27701 0.57452,0.618719 z" />
    <path
       transform="matrix(1.3354192,0.05582439,-0.07810702,1.2631066,-414.68597,162.69042)"
       sodipodi:type="arc"
       style="fill:#000000;fill-opacity:1;fill-rule:evenodd;stroke:#000000;stroke-width:0;stroke-linecap:square;stroke-linejoin:round;stroke-miterlimit:4;stroke-opacity:0;stroke-dasharray:none;stroke-dashoffset:0"
       id="path3824-7"
       sodipodi:cx="453.56482"
       sodipodi:cy="25.374062"
       sodipodi:rx="0.57452428"
       sodipodi:ry="0.61871845"
       d="m 454.13934,25.374062 c 0,0.341708 -0.25722,0.618718 -0.57452,0.618718 -0.3173,0 -0.57452,-0.27701 -0.57452,-0.618718 0,-0.341709 0.25722,-0.618719 0.57452,-0.618719 0.3173,0 0.57452,0.27701 0.57452,0.618719 z" />
    <path
       sodipodi:type="arc"
       style="fill:#ffffff;fill-opacity:1;fill-rule:evenodd;stroke:#000000;stroke-width:0;stroke-linecap:square;stroke-linejoin:round;stroke-miterlimit:4;stroke-opacity:0;stroke-dasharray:none;stroke-dashoffset:0"
       id="path3857"
       sodipodi:cx="453.46875"
       sodipodi:cy="35.320312"
       sodipodi:rx="2.671875"
       sodipodi:ry="1.9765625"
       d="m 456.14062,35.320312 c 0,1.091626 -1.19623,1.976563 -2.67187,1.976563 -1.47564,0 -2.67188,-0.884937 -2.67188,-1.976563 0,-1.091625 1.19624,-1.976562 2.67188,-1.976562 1.47564,0 2.67187,0.884937 2.67187,1.976562 z"
       transform="matrix(1.1948487,0.04994814,-0.0842815,1.362957,-367.23197,155.06055)" />
    <path
       sodipodi:type="arc"
       style="fill:#000000;fill-opacity:1;fill-rule:evenodd;stroke:#000000;stroke-width:0;stroke-linecap:square;stroke-linejoin:round;stroke-miterlimit:4;stroke-opacity:0;stroke-dasharray:none;stroke-dashoffset:0"
       id="path3857-1"
       sodipodi:cx="453.46875"
       sodipodi:cy="35.320312"
       sodipodi:rx="2.671875"
       sodipodi:ry="1.9765625"
       d="m 456.14062,35.320312 c 0,1.091626 -1.19623,1.976563 -2.67187,1.976563 -1.47564,0 -2.67188,-0.884937 -2.67188,-1.976563 0,-1.091625 1.19624,-1.976562 2.67188,-1.976562 1.47564,0 2.67187,0.884937 2.67187,1.976562 z"
       transform="matrix(0.28894809,0.01207887,-0.0237717,0.38442374,41.76376,205.77037)" />
    <path
       sodipodi:type="arc"
       style="fill:#000000;fill-opacity:1;fill-rule:evenodd;stroke:#000000;stroke-width:0;stroke-linecap:square;stroke-linejoin:round;stroke-miterlimit:4;stroke-opacity:0;stroke-dasharray:none;stroke-dashoffset:0"
       id="path3857-1-1"
       sodipodi:cx="453.46875"
       sodipodi:cy="35.320312"
       sodipodi:rx="2.671875"
       sodipodi:ry="1.9765625"
       d="m 456.14062,35.320312 c 0,1.091626 -1.19623,1.976563 -2.67187,1.976563 -1.47564,0 -2.67188,-0.884937 -2.67188,-1.976563 0,-1.091625 1.19624,-1.976562 2.67188,-1.976562 1.47564,0 2.67187,0.884937 2.67187,1.976562 z"
       transform="matrix(0.28894809,0.01207887,-0.0237717,0.38442374,41.61696,207.12954)" />
    <path
       sodipodi:type="arc"
       style="fill:#000000;fill-opacity:1;fill-rule:evenodd;stroke:#000000;stroke-width:0;stroke-linecap:square;stroke-linejoin:round;stroke-miterlimit:4;stroke-opacity:0;stroke-dasharray:none;stroke-dashoffset:0"
       id="path3857-1-2"
       sodipodi:cx="453.46875"
       sodipodi:cy="35.320312"
       sodipodi:rx="2.671875"
       sodipodi:ry="1.9765625"
       d="m 456.14062,35.320312 c 0,1.091626 -1.19623,1.976563 -2.67187,1.976563 -1.47564,0 -2.67188,-0.884937 -2.67188,-1.976563 0,-1.091625 1.19624,-1.976562 2.67188,-1.976562 1.47564,0 2.67187,0.884937 2.67187,1.976562 z"
       transform="matrix(0.26161497,0.01093626,-0.03889915,0.62905703,54.30396,198.35396)" />
    <path
       inkscape:connector-curvature="0"
       style="fill:#000000;fill-opacity:1;stroke:#000000;stroke-width:1px;stroke-linecap:butt;stroke-linejoin:miter;stroke-opacity:0"
       d="m 167.81216,222.10009 c 0,0.49091 -0.01,1.38609 0.6501,2.34227 -3.1553,4.1172 3.6679,6.82873 6.6176,2.25534 0.3822,0.2212 1.2831,0.43455 1.2062,-0.89936 0.076,-0.96344 0.7184,-0.89003 1.2737,-0.97568 -2.2552,-1.50122 -4.3641,-2.58996 -5.773,-1.70557 2.097,0.79431 3.9663,2.54663 1.0325,4.27759 -4.9386,2.52626 -5.2357,-3.49332 -1.0116,-4.27672 -1.3445,-0.25155 -2.7397,-0.14934 -3.9955,-1.01787 z"
       id="path3912"
       sodipodi:nodetypes="ccccccccc" />
    <path
       inkscape:connector-curvature="0"
       style="fill:#000000;stroke:#000000;stroke-width:1px;stroke-linecap:butt;stroke-linejoin:miter;stroke-opacity:0"
       d="m 144.40666,234.89347 c -1.8779,-1.96974 -1.3023,-6.1586 3.0884,-5.96531 -3.1013,1.51928 -3.2189,3.16329 -2.6838,4.83458 l -0.4046,1.13073 z"
       id="path3916"
       sodipodi:nodetypes="cccc" />
    <path
       inkscape:connector-curvature="0"
       style="fill:none;stroke:#000000;stroke-width:1px;stroke-linecap:butt;stroke-linejoin:miter;stroke-opacity:1"
       d="m 181.74126,230.78115 c 1.0004,0.25929 2.1117,0.97889 2.9782,-1.27466 7.9218,-2.92291 -3.8338,-5.18073 -5.8362,-1.30733"
       id="path3918"
       sodipodi:nodetypes="ccc" />
    <path
       inkscape:connector-curvature="0"
       style="fill:#000000;stroke:#000000;stroke-width:1px;stroke-linecap:butt;stroke-linejoin:miter;stroke-opacity:0"
       d="m 182.45726,228.2926 2.0487,-1.07566 -0.7661,0.66755 1.1169,-0.35907 -0.8469,0.53826 0.7993,-0.009 -1.0274,0.34881 0.8167,0.18805 -1.0162,0.16739 0.4149,0.22722 -1.4121,-0.12898 -0.231,-0.33146 0.1032,-0.23355 z"
       id="path3920" />
    <path
       inkscape:connector-curvature="0"
       style="fill:none;stroke:#000000;stroke-width:1px;stroke-linecap:butt;stroke-linejoin:miter;stroke-opacity:1"
       d="m 178.37696,229.68908 c -0.8744,1.57749 -1.9991,3.73324 2.2067,6.41644 4.2556,2.52245 3.714,5.39844 0.5093,7.07303"
       id="path3922"
       sodipodi:nodetypes="ccc" />
    <path
       inkscape:connector-curvature="0"
       style="fill:none;stroke:#000000;stroke-width:1px;stroke-linecap:butt;stroke-linejoin:miter;stroke-opacity:1"
       d="m 176.35856,235.53713 c 0.5923,1.83995 2.193,3.03302 4.2286,0.51256"
       id="path3924"
       sodipodi:nodetypes="cc" />
    <path
       inkscape:connector-curvature="0"
       style="fill:none;stroke:#000000;stroke-width:1px;stroke-linecap:butt;stroke-linejoin:miter;stroke-opacity:1"
       d="m 186.52506,240.49539 c -0.3193,1.55268 -1.3488,2.76118 -3.3523,3.49767"
       id="path3926"
       sodipodi:nodetypes="cc" />
    <path
       inkscape:connector-curvature="0"
       style="fill:none;stroke:#000000;stroke-width:1px;stroke-linecap:butt;stroke-linejoin:miter;stroke-opacity:1"
       d="m 174.96006,237.10169 c 1.1345,1.67045 0.5131,3.26749 -0.5364,4.84664 -1.1287,1.5378 -1.148,2.92649 1.2028,4.47161 l 0,0"
       id="path3928"
       sodipodi:nodetypes="cccc" />
    <path
       inkscape:connector-curvature="0"
       style="fill:none;stroke:#000000;stroke-width:1px;stroke-linecap:butt;stroke-linejoin:miter;stroke-opacity:1"
       d="m 176.77126,244.17318 c 1.6694,2.34691 3.4542,2.82815 5.3261,1.90164 1.4526,-0.59748 2.7906,-0.74718 3.8292,0.272"
       id="path3930"
       sodipodi:nodetypes="ccc" />
    <path
       inkscape:connector-curvature="0"
       style="fill:none;stroke:#000000;stroke-width:1px;stroke-linecap:butt;stroke-linejoin:miter;stroke-opacity:1"
       d="m 156.81496,249.21541 c 1.013,-1.88706 3.682,-3.2488 7.1339,-0.54128 2.0583,1.70244 4.1442,0.99701 6.2382,-0.41082 0.1368,1.42504 0.251,2.87786 2.2191,2.05158"
       id="path3932"
       sodipodi:nodetypes="cccc" />
    <path
       inkscape:connector-curvature="0"
       style="fill:none;stroke:#000000;stroke-width:1px;stroke-linecap:butt;stroke-linejoin:miter;stroke-opacity:1"
       d="m 178.46816,252.13536 c -5.8898,3.49716 -13.1008,10.45375 -9.0657,15.51544 1.9031,2.09434 1.9964,4.11303 2.2239,6.13733 1.8115,-0.3297 3.6979,-2.80697 4.4336,-5.20816 1.3436,-5.49012 3.8702,-6.14021 6.2857,-7.38388 l 1.2231,3.18524"
       id="path3934"
       sodipodi:nodetypes="cccccc" />
    <path
       inkscape:connector-curvature="0"
       style="fill:none;stroke:#000000;stroke-width:1px;stroke-linecap:butt;stroke-linejoin:miter;stroke-opacity:1"
       d="m 182.30736,260.85869 c -2.0835,-2.50787 -0.3724,-3.15517 0.6268,-4.39513"
       id="path3936"
       sodipodi:nodetypes="cc" />
    <path
       inkscape:connector-curvature="0"
       style="fill:none;stroke:#000000;stroke-width:1px;stroke-linecap:butt;stroke-linejoin:miter;stroke-opacity:1"
       d="m 182.23816,281.11558 c 2.1702,-0.0987 4.4483,-1.87908 5.6226,-3.8505 l -0.066,0.10918"
       id="path3938"
       sodipodi:nodetypes="ccc" />
    <path
       inkscape:connector-curvature="0"
       style="fill:none;stroke:#000000;stroke-width:1px;stroke-linecap:butt;stroke-linejoin:miter;stroke-opacity:1"
       d="m 180.39356,277.93234 c 2.1703,-0.0987 4.4483,-1.87907 5.6226,-3.85049 l -0.066,0.10918"
       id="path3938-7"
       sodipodi:nodetypes="ccc" />
    <path
       inkscape:connector-curvature="0"
       style="fill:none;stroke:#000000;stroke-width:1px;stroke-linecap:butt;stroke-linejoin:miter;stroke-opacity:1"
       d="m 179.11836,274.63299 c 2.1702,-0.0987 4.4483,-1.87907 5.6226,-3.85049 l -0.066,0.10918"
       id="path3938-1"
       sodipodi:nodetypes="ccc" />
    <path
       inkscape:connector-curvature="0"
       style="fill:none;stroke:#000000;stroke-width:1px;stroke-linecap:butt;stroke-linejoin:miter;stroke-opacity:1"
       d="m 178.11376,270.78529 c 2.1702,-0.0987 4.4483,-1.87907 5.6226,-3.8505 l -0.066,0.10918"
       id="path3938-2"
       sodipodi:nodetypes="ccc" />
    <path
       inkscape:connector-curvature="0"
       style="fill:none;stroke:#000000;stroke-width:1px;stroke-linecap:butt;stroke-linejoin:miter;stroke-opacity:1"
       d="m 184.31876,284.30868 c 2.1702,-0.0987 4.4483,-1.87908 5.6226,-3.8505 l -0.066,0.10918"
       id="path3938-22"
       sodipodi:nodetypes="ccc" />
    <path
       inkscape:connector-curvature="0"
       style="fill:none;stroke:#000000;stroke-width:1px;stroke-linecap:butt;stroke-linejoin:miter;stroke-opacity:1"
       d="m 187.56916,287.24287 c 1.7173,-0.0813 3.5217,-1.52178 4.453,-3.11586 l -0.052,0.0883"
       id="path3938-6"
       sodipodi:nodetypes="ccc" />
    <path
       inkscape:connector-curvature="0"
       style="fill:none;stroke:#000000;stroke-width:1px;stroke-linecap:butt;stroke-linejoin:miter;stroke-opacity:1"
       d="m 189.97766,289.918 c 1.7173,-0.0813 3.5217,-1.52177 4.4529,-3.11586 l -0.052,0.0883"
       id="path3938-6-8"
       sodipodi:nodetypes="ccc" />
    <path
       inkscape:connector-curvature="0"
       style="fill:none;stroke:#000000;stroke-width:1px;stroke-linecap:butt;stroke-linejoin:miter;stroke-opacity:1"
       d="m 192.55786,292.20855 c 1.7173,-0.0813 3.5217,-1.52178 4.4529,-3.11587 l -0.052,0.0883"
       id="path3938-6-7"
       sodipodi:nodetypes="ccc" />
    <path
       inkscape:connector-curvature="0"
       style="fill:none;stroke:#000000;stroke-width:1px;stroke-linecap:butt;stroke-linejoin:miter;stroke-opacity:1"
       d="m 194.60686,294.47688 c 1.7173,-0.0813 3.5217,-1.52178 4.453,-3.11587 l -0.052,0.0883"
       id="path3938-6-1"
       sodipodi:nodetypes="ccc" />
    <path
       inkscape:connector-curvature="0"
       style="fill:none;stroke:#000000;stroke-width:1px;stroke-linecap:butt;stroke-linejoin:miter;stroke-opacity:1"
       d="m 154.43956,266.57758 c 1.3895,2.85207 3.0917,5.66828 2.6553,8.72981"
       id="path4038"
       sodipodi:nodetypes="cc" />
    <path
       inkscape:connector-curvature="0"
       style="fill:none;stroke:#000000;stroke-width:1px;stroke-linecap:butt;stroke-linejoin:miter;stroke-opacity:1"
       d="m 151.26606,265.26963 c 1.3841,2.69257 1.8968,5.48511 1.3742,8.39642 -0.7761,2.55805 1.1144,3.8092 3.6605,3.95872 5.7672,-0.0705 9.6043,1.41111 12.558,3.6031"
       id="path4040"
       sodipodi:nodetypes="cccc" />
    <path
       inkscape:connector-curvature="0"
       style="fill:none;stroke:#000000;stroke-width:1px;stroke-linecap:butt;stroke-linejoin:miter;stroke-opacity:1"
       d="m 135.78876,242.85176 c -3.398,1.93313 -2.8905,5.14077 0.5718,7.01969 -6.8319,-1.44044 -7.9724,3.08957 -10.666,5.99024"
       id="path4042"
       sodipodi:nodetypes="ccc" />
    <path
       inkscape:connector-curvature="0"
       style="fill:#000000;stroke:#000000;stroke-width:1px;stroke-linecap:butt;stroke-linejoin:miter;stroke-opacity:0"
       d="m 122.84676,233.02035 c 2.4348,0.17498 4.8757,0.25296 7.401,-1.03381 l 0.3441,1.13371 c -2.5813,1.19971 -5.163,1.23716 -7.7451,-0.0999 z"
       id="path4044"
       sodipodi:nodetypes="cccc" />
    <path
       inkscape:connector-curvature="0"
       style="fill:#000000;stroke:#000000;stroke-width:1px;stroke-linecap:butt;stroke-linejoin:miter;stroke-opacity:0"
       d="m 122.18956,229.77238 c 2.4349,0.17498 4.8758,0.25298 7.4011,-1.0338 l 0.3441,1.1337 c -2.5813,1.19971 -5.163,1.23717 -7.7452,-0.0999 z"
       id="path4044-8"
       sodipodi:nodetypes="cccc" />
    <path
       inkscape:connector-curvature="0"
       style="fill:#000000;stroke:#000000;stroke-width:1px;stroke-linecap:butt;stroke-linejoin:miter;stroke-opacity:0"
       d="m 121.57076,227.33996 c 2.4349,0.17499 4.8758,0.25297 7.4011,-1.0338 l 0.3441,1.13371 c -2.5813,1.1997 -5.163,1.23716 -7.7452,-0.0999 z"
       id="path4044-2"
       sodipodi:nodetypes="cccc" />
    <path
       inkscape:connector-curvature="0"
       style="fill:#000000;stroke:#000000;stroke-width:1px;stroke-linecap:butt;stroke-linejoin:miter;stroke-opacity:0"
       d="m 121.63226,224.43229 c 2.4349,0.17498 4.8758,0.25296 7.401,-1.03381 l 0.3441,1.13371 c -2.5813,1.19971 -5.1629,1.23716 -7.7451,-0.0999 z"
       id="path4044-9"
       sodipodi:nodetypes="cccc" />
    <path
       inkscape:connector-curvature="0"
       style="fill:#000000;stroke:#000000;stroke-width:1px;stroke-linecap:butt;stroke-linejoin:miter;stroke-opacity:0"
       d="m 121.56876,221.63132 c 2.4349,0.17498 4.8758,0.25297 7.4011,-1.0338 l 0.344,1.13371 c -2.5812,1.1997 -5.1629,1.23716 -7.7451,-0.0999 z"
       id="path4044-4"
       sodipodi:nodetypes="cccc" />
    <path
       inkscape:connector-curvature="0"
       style="fill:#000000;stroke:#000000;stroke-width:1px;stroke-linecap:butt;stroke-linejoin:miter;stroke-opacity:0"
       d="m 124.23306,235.95813 c 2.4349,0.17498 4.8758,0.25296 7.4011,-1.03381 l 0.344,1.13371 c -2.5812,1.1997 -5.1629,1.23716 -7.7451,-0.0999 z"
       id="path4044-1"
       sodipodi:nodetypes="cccc" />
    <path
       inkscape:connector-curvature="0"
       style="fill:#000000;stroke:#000000;stroke-width:1px;stroke-linecap:butt;stroke-linejoin:miter;stroke-opacity:0"
       d="m 125.46996,238.92008 c 2.4349,0.17498 4.8758,0.25296 7.4011,-1.03381 l 0.3441,1.13371 c -2.5813,1.19971 -5.163,1.23716 -7.7452,-0.0999 z"
       id="path4044-3"
       sodipodi:nodetypes="cccc" />
    <path
       inkscape:connector-curvature="0"
       style="fill:#000000;stroke:#000000;stroke-width:1px;stroke-linecap:butt;stroke-linejoin:miter;stroke-opacity:0"
       d="m 126.77316,242.72429 c 2.4349,0.17498 4.8758,0.25297 7.4011,-1.0338 l 0.344,1.13371 c -2.5812,1.1997 -5.1629,1.23716 -7.7451,-0.0999 z"
       id="path4044-11"
       sodipodi:nodetypes="cccc" />
    <path
       inkscape:connector-curvature="0"
       style="fill:#000000;stroke:#000000;stroke-width:1px;stroke-linecap:butt;stroke-linejoin:miter;stroke-opacity:0"
       d="m 128.87466,246.05818 c 1.6528,0.14229 3.3116,0.18758 5.0548,-1.13188 l 0.2116,1.12817 c -1.7796,1.23322 -3.5364,1.30515 -5.2664,0.004 z"
       id="path4044-7"
       sodipodi:nodetypes="cccc" />
    <path
       inkscape:connector-curvature="0"
       style="fill:none;stroke:#000000;stroke-width:1px;stroke-linecap:butt;stroke-linejoin:miter;stroke-opacity:1"
       d="m 118.44096,242.07061 c 1.5276,0.11615 2.4929,-1.35169 2.7208,-2.85248"
       id="path4131"
       sodipodi:nodetypes="cc" />
    <path
       inkscape:connector-curvature="0"
       style="fill:none;stroke:#000000;stroke-width:1px;stroke-linecap:butt;stroke-linejoin:miter;stroke-opacity:1"
       d="m 121.11436,242.85396 c 0.7894,1.74846 0.9123,3.17398 3.2584,5.67687 0.6739,0.82109 1.2738,1.68416 0.5045,3.3231 l 1.9794,1.48189"
       id="path4133"
       sodipodi:nodetypes="cccc" />
    <path
       inkscape:connector-curvature="0"
       style="fill:#000000;stroke:#000000;stroke-width:1px;stroke-linecap:butt;stroke-linejoin:miter;stroke-opacity:0"
       d="m 113.95806,238.97296 4.5092,-1.15469 -2.7593,1.56364 -1.7499,-0.40895 z"
       id="path4135" />
    <path
       inkscape:connector-curvature="0"
       style="fill:#000000;stroke:#000000;stroke-width:1px;stroke-linecap:butt;stroke-linejoin:miter;stroke-opacity:0"
       d="m 105.68546,277.42941 -0.6013,-4.35467 1.2681,2.75678 -0.6668,1.59789 z"
       id="path4135-4" />
    <path
       inkscape:connector-curvature="0"
       style="fill:#000000;stroke:#000000;stroke-width:1px;stroke-linecap:butt;stroke-linejoin:miter;stroke-opacity:0"
       d="m 136.31976,292.51043 0.7885,-4.34666 0.3449,2.9994 -1.1334,1.34726 z"
       id="path4135-7" />
    <path
       inkscape:connector-curvature="0"
       style="fill:#000000;stroke:#000000;stroke-width:1px;stroke-linecap:butt;stroke-linejoin:miter;stroke-opacity:0"
       d="m 100.22236,295.74672 -4.3434,1.64199 2.5522,-1.85456 1.7912,0.21257 z"
       id="path4135-9" />
    <path
       inkscape:connector-curvature="0"
       style="fill:#000000;stroke:#000000;stroke-width:1px;stroke-linecap:butt;stroke-linejoin:miter;stroke-opacity:0"
       d="m 100.28706,282.56042 -4.51,1.15152 2.7605,-1.56171 1.7495,0.41019 z"
       id="path4135-1" />
    <path
       inkscape:connector-curvature="0"
       style="fill:#000000;stroke:#000000;stroke-width:1px;stroke-linecap:butt;stroke-linejoin:miter;stroke-opacity:0"
       d="m 108.44216,227.2015 4.6464,-0.33577 -3.0138,1.04951 -1.6326,-0.71374 z"
       id="path4135-8" />
    <path
       inkscape:connector-curvature="0"
       style="fill:#000000;stroke:#000000;stroke-width:1px;stroke-linecap:butt;stroke-linejoin:miter;stroke-opacity:0"
       d="m 116.95256,208.14453 1.3511,4.19204 -1.7328,-2.51608 0.3817,-1.67596 z"
       id="path4135-5" />
    <path
       inkscape:connector-curvature="0"
       style="fill:none;stroke:#000000;stroke-width:1px;stroke-linecap:butt;stroke-linejoin:miter;stroke-opacity:1"
       d="m 125.69906,207.91337 c 1.5133,0.52877 2.8307,0.66248 3.6527,-0.20347"
       id="path4204"
       sodipodi:nodetypes="cc" />
    <path
       inkscape:connector-curvature="0"
       style="fill:none;stroke:#000000;stroke-width:1px;stroke-linecap:butt;stroke-linejoin:miter;stroke-opacity:1"
       d="m 119.47146,208.4841 c 1.1567,2.01635 -0.1406,3.17562 -1.3166,4.37726 -1.2068,-0.28779 -3.1662,-0.0125 -3.3186,0.8902 l 0.2528,-0.029"
       id="path4206"
       sodipodi:nodetypes="cccc" />
    <path
       inkscape:connector-curvature="0"
       style="fill:none;stroke:#000000;stroke-width:1px;stroke-linecap:butt;stroke-linejoin:miter;stroke-opacity:1"
       d="m 122.68976,208.53948 c 0.3855,1.53195 -0.2346,2.90179 -1.6159,4.14891 -2.9699,2.2925 -1.4914,4.03487 -1.7662,4.53474"
       id="path4208"
       sodipodi:nodetypes="ccc" />
    <path
       inkscape:connector-curvature="0"
       style="fill:none;stroke:#000000;stroke-width:1px;stroke-linecap:butt;stroke-linejoin:miter;stroke-opacity:1"
       d="m 123.88546,216.26685 c 2.9019,-2.73492 6.1191,-3.53549 9.6045,-3.08103"
       id="path4210"
       sodipodi:nodetypes="cc" />
    <path
       inkscape:connector-curvature="0"
       style="fill:none;stroke:#000000;stroke-width:1px;stroke-linecap:butt;stroke-linejoin:miter;stroke-opacity:1"
       d="m 133.24686,213.05694 c 0.1076,1.30289 -0.4868,2.98326 2.3997,3.82028"
       id="path4212"
       sodipodi:nodetypes="cc" />
    <path
       inkscape:connector-curvature="0"
       style="fill:none;stroke:#000000;stroke-width:1px;stroke-linecap:butt;stroke-linejoin:miter;stroke-opacity:1"
       d="m 111.63136,223.62984 c 1.545,1.20632 3.2271,3.8576 0.9203,6.09331"
       id="path4214"
       sodipodi:nodetypes="cc" />
    <path
       inkscape:connector-curvature="0"
       style="fill:none;stroke:#000000;stroke-width:1px;stroke-linecap:butt;stroke-linejoin:miter;stroke-opacity:1"
       d="m 129.88366,268.12223 c 3.3923,-1.06022 6.0453,-2.5658 8.7032,-4.06848 l 0,0"
       id="path4216"
       sodipodi:nodetypes="ccc" />
    <path
       inkscape:connector-curvature="0"
       style="fill:none;stroke:#000000;stroke-width:1px;stroke-linecap:butt;stroke-linejoin:miter;stroke-opacity:1"
       d="m 127.90386,271.71987 c 1.4027,-0.85055 3.8671,-1.92013 7.1785,-2.53531 4.6997,-0.87309 8.1505,-4.86643 11.6901,-8.27115 l 0.2733,2.3463"
       id="path4218"
       sodipodi:nodetypes="cscc" />
    <path
       inkscape:connector-curvature="0"
       style="fill:none;stroke:#000000;stroke-width:1px;stroke-linecap:butt;stroke-linejoin:miter;stroke-opacity:1"
       d="m 148.37726,259.31839 1.577,2.91526"
       id="path4220" />
    <path
       inkscape:connector-curvature="0"
       style="fill:none;stroke:#000000;stroke-width:1px;stroke-linecap:butt;stroke-linejoin:miter;stroke-opacity:1"
       d="m 146.93456,275.20645 c -5.0045,1.95516 -10.0761,3.80611 -11.6096,11.14947"
       id="path4222"
       sodipodi:nodetypes="cc" />
    <path
       inkscape:connector-curvature="0"
       style="fill:none;stroke:#000000;stroke-width:1px;stroke-linecap:butt;stroke-linejoin:miter;stroke-opacity:1"
       d="m 130.34956,287.65175 c -0.8407,0.50391 -1.1136,1.3407 -0.986,2.41237 l 0,0"
       id="path4224"
       sodipodi:nodetypes="ccc" />
    <path
       inkscape:connector-curvature="0"
       style="fill:none;stroke:#000000;stroke-width:1px;stroke-linecap:butt;stroke-linejoin:miter;stroke-opacity:1"
       d="m 119.09676,294.38384 c 0.2833,-1.24808 -0.6709,-2.08924 -2.0875,-2.77831 -3.1579,-2.17701 0.8039,-2.53945 3.4435,-1.55773 1.2611,0.52897 2.1311,1.44659 2.6791,2.68431"
       id="path4226"
       sodipodi:nodetypes="cccc" />
    <path
       inkscape:connector-curvature="0"
       style="fill:none;stroke:#000000;stroke-width:1px;stroke-linecap:butt;stroke-linejoin:miter;stroke-opacity:1"
       d="m 116.81846,286.57164 c 1.7446,0.94355 4.1922,1.57766 3.6736,3.51737"
       id="path4228"
       sodipodi:nodetypes="cc" />
    <path
       inkscape:connector-curvature="0"
       style="fill:none;stroke:#000000;stroke-width:1px;stroke-linecap:butt;stroke-linejoin:miter;stroke-opacity:1"
       d="m 115.41636,292.33043 c -4.5124,0.28197 -4.2999,1.89824 -5.5884,3.09061"
       id="path4230"
       sodipodi:nodetypes="cc" />
    <path
       inkscape:connector-curvature="0"
       style="fill:none;stroke:#000000;stroke-width:1px;stroke-linecap:butt;stroke-linejoin:miter;stroke-opacity:1"
       d="m 100.38396,280.34426 c 0.9335,1.54099 1.4777,3.5195 -1.7779,5.07031"
       id="path4232"
       sodipodi:nodetypes="cc" />
    <path
       inkscape:connector-curvature="0"
       style="fill:none;stroke:#000000;stroke-width:1px;stroke-linecap:butt;stroke-linejoin:miter;stroke-opacity:1"
       d="m 102.54376,279.24732 c 1.2536,0.93113 1.814,2.38042 2.1371,4.00718 0.5329,1.87531 2.4494,2.56891 3.8283,3.7217"
       id="path4234"
       sodipodi:nodetypes="ccc" />
    <path
       inkscape:connector-curvature="0"
       style="fill:none;stroke:#000000;stroke-width:1px;stroke-linecap:butt;stroke-linejoin:miter;stroke-opacity:1"
       d="m 106.00326,288.25655 c -2.1892,-1.13371 -4.4137,-1.69737 -6.7068,-1.151"
       id="path4236"
       sodipodi:nodetypes="cc" />
    <path
       inkscape:connector-curvature="0"
       style="fill:none;stroke:#000000;stroke-width:1px;stroke-linecap:butt;stroke-linejoin:miter;stroke-opacity:1"
       d="m 97.67056,291.7469 c 3.945,0.93192 6.8913,3.7553 4.0992,6.10748"
       id="path4238"
       sodipodi:nodetypes="cc" />
    <path
       inkscape:connector-curvature="0"
       style="fill:#fcdd09;fill-opacity:1;stroke:#000000;stroke-width:1px;stroke-linecap:butt;stroke-linejoin:miter;stroke-opacity:1"
       d="m 210.84756,297.15079 c 5.2075,-2.84378 10.1213,-8.76549 8.9888,-15.45389 -33.5964,-10.84509 -16.1471,-41.1283 4.1218,-34.17803 4.0146,-6.13638 0.5453,-16.95869 -8.2818,-12.21844 -1.5716,-5.11448 3.0469,-7.85047 7.7158,-5.69272 -2.8324,-11.06786 20.1437,-18.83792 18.6949,-1.90954 -2.9683,-4.69264 -7.6264,-3.23247 -6.598,1.14885 -0.8977,5.11709 -0.3051,14.11492 -5.5155,8.00085 1.23,2.97092 2.1272,7.40121 -1.4781,13.07682 2.5278,2.21629 4.4264,4.40628 5.6189,6.56675 3.233,4.44941 6.7789,1.32101 7.05,-0.33848 2.0513,6.76118 -2.8613,8.43472 -7.1751,7.77318 1.4893,2.01458 3.9661,4.07044 2.9773,5.98143 2.3069,2.38966 4.7687,2.27331 7.2277,2.2017 -12.3853,7.36045 -22.6949,-1.67261 -15.2538,-13.14307 l -3.3199,-3.14642 c -3.6339,3.96837 -3.6927,9.23873 -2.1058,15.10843 3.269,7.68212 4.0501,15.26024 -0.2277,22.62688 1.4713,0.22538 5.2519,1.43057 3.9594,6.33907 -6.0942,-3.02291 -9.8682,-1.99806 -12.7548,0.57489 l -3.6441,-3.31826 z"
       id="path4240"
       sodipodi:nodetypes="ccccccccccccccccccccc" />
    <path
       inkscape:connector-curvature="0"
       style="fill:#e2401e;fill-opacity:1;stroke:#000000;stroke-width:1px;stroke-linecap:butt;stroke-linejoin:miter;stroke-opacity:1"
       d="m 220.77866,252.92634 c -5.504,4.48916 -7.4773,15.24457 -2.53,23.32211 -17.3405,-8.38976 -10.0392,-28.07452 2.53,-23.32211 z"
       id="path4264"
       sodipodi:nodetypes="ccc" />
    <path
       inkscape:connector-curvature="0"
       style="fill:none;stroke:#000000;stroke-width:1px;stroke-linecap:butt;stroke-linejoin:miter;stroke-opacity:1"
       d="m 220.70016,252.8439 c 1.6237,0.669 3.2106,1.46417 5.0038,2.97937"
       id="path4266"
       sodipodi:nodetypes="cc" />
    <path
       inkscape:connector-curvature="0"
       style="fill:none;stroke:#000000;stroke-width:1px;stroke-linecap:butt;stroke-linejoin:miter;stroke-opacity:1"
       d="m 223.96796,247.36098 4.8467,2.8145"
       id="path4268" />
    <path
       inkscape:connector-curvature="0"
       style="fill:none;stroke:#000000;stroke-width:1px;stroke-linecap:butt;stroke-linejoin:miter;stroke-opacity:1"
       d="m 227.38376,230.01202 c 1.2953,-8.21688 5.3963,-9.42284 10.538,-8.02835"
       id="path4270"
       sodipodi:nodetypes="cc" />
    <path
       inkscape:connector-curvature="0"
       style="fill:#000000;stroke:#000000;stroke-width:1px;stroke-linecap:butt;stroke-linejoin:miter;stroke-opacity:0"
       d="m 223.91266,257.72709 -3.0681,0.90067 2.7543,0.11514 0.3138,-1.01581 z"
       id="path4272" />
    <path
       inkscape:connector-curvature="0"
       style="fill:#000000;stroke:#000000;stroke-width:1px;stroke-linecap:butt;stroke-linejoin:miter;stroke-opacity:0"
       d="m 222.90476,260.49472 -3.0682,0.90067 2.7544,0.11514 0.3138,-1.01581 z"
       id="path4272-2" />
    <path
       inkscape:connector-curvature="0"
       style="fill:#000000;stroke:#000000;stroke-width:1px;stroke-linecap:butt;stroke-linejoin:miter;stroke-opacity:0"
       d="m 222.90566,263.1858 -3.0681,0.90067 2.7543,0.11514 0.3138,-1.01581 z"
       id="path4272-6" />
    <path
       inkscape:connector-curvature="0"
       style="fill:#000000;stroke:#000000;stroke-width:1px;stroke-linecap:butt;stroke-linejoin:miter;stroke-opacity:0"
       d="m 222.63676,266.18219 -3.0682,0.90067 2.7543,0.11513 0.3139,-1.0158 z"
       id="path4272-24" />
    <path
       inkscape:connector-curvature="0"
       style="fill:#000000;stroke:#000000;stroke-width:1px;stroke-linecap:butt;stroke-linejoin:miter;stroke-opacity:0"
       d="m 223.15796,268.57843 -3.0681,0.90066 2.7543,0.11514 0.3138,-1.01581 z"
       id="path4272-5" />
    <path
       inkscape:connector-curvature="0"
       style="fill:#000000;stroke:#000000;stroke-width:1px;stroke-linecap:butt;stroke-linejoin:miter;stroke-opacity:0"
       d="m 223.54166,270.49402 -3.0682,0.90067 2.7543,0.11514 0.3139,-1.01581 z"
       id="path4272-0" />
    <path
       inkscape:connector-curvature="0"
       style="fill:#000000;stroke:#000000;stroke-width:1px;stroke-linecap:butt;stroke-linejoin:miter;stroke-opacity:0"
       d="m 224.32306,272.74284 -3.0682,0.90067 2.7543,0.11513 0.3139,-1.0158 z"
       id="path4272-1" />
    <path
       inkscape:connector-curvature="0"
       style="fill:#000000;stroke:#000000;stroke-width:1px;stroke-linecap:butt;stroke-linejoin:miter;stroke-opacity:0"
       d="m 225.02836,274.86975 -3.0682,0.90066 2.7543,0.11514 0.3139,-1.01581 z"
       id="path4272-8" />
    <path
       inkscape:connector-curvature="0"
       style="fill:#000000;stroke:#000000;stroke-width:1px;stroke-linecap:butt;stroke-linejoin:miter;stroke-opacity:0"
       d="m 225.83436,277.39661 -3.0681,0.90067 2.7542,0.11514 0.3139,-1.01581 z"
       id="path4272-3" />
    <path
       inkscape:connector-curvature="0"
       style="fill:#000000;stroke:#000000;stroke-width:1px;stroke-linecap:butt;stroke-linejoin:miter;stroke-opacity:0"
       d="m 226.23306,280.42091 -3.0681,0.90067 2.7543,0.11514 0.3138,-1.01581 z"
       id="path4272-4" />
    <path
       inkscape:connector-curvature="0"
       style="fill:#000000;stroke:#000000;stroke-width:1px;stroke-linecap:butt;stroke-linejoin:miter;stroke-opacity:0"
       d="m 226.03756,282.90591 -3.0681,0.90067 2.7543,0.11513 0.3138,-1.0158 z"
       id="path4272-06" />
    <path
       inkscape:connector-curvature="0"
       style="fill:#000000;stroke:#000000;stroke-width:1px;stroke-linecap:butt;stroke-linejoin:miter;stroke-opacity:0"
       d="m 226.11716,285.67942 -3.0682,0.90067 2.7543,0.11514 0.3139,-1.01581 z"
       id="path4272-84" />
    <path
       inkscape:connector-curvature="0"
       style="fill:#000000;stroke:#000000;stroke-width:1px;stroke-linecap:butt;stroke-linejoin:miter;stroke-opacity:0"
       d="m 225.11676,289.0014 -3.0682,0.90067 2.7543,0.11514 0.3139,-1.01581 z"
       id="path4272-37" />
    <path
       inkscape:connector-curvature="0"
       style="fill:#000000;stroke:#000000;stroke-width:1px;stroke-linecap:butt;stroke-linejoin:miter;stroke-opacity:0"
       d="m 224.30256,291.34182 -3.0681,0.90067 2.7543,0.11513 0.3138,-1.0158 z"
       id="path4272-29" />
    <path
       inkscape:connector-curvature="0"
       style="fill:#000000;stroke:#000000;stroke-width:1px;stroke-linecap:butt;stroke-linejoin:miter;stroke-opacity:0"
       d="m 234.19296,234.9264 -2.569,-1.76864 1.5245,2.1527 1.0445,-0.38406 z"
       id="path4272-35" />
    <path
       inkscape:connector-curvature="0"
       style="fill:#000000;stroke:#000000;stroke-width:1px;stroke-linecap:butt;stroke-linejoin:miter;stroke-opacity:0"
       d="m 233.11266,236.82059 -2.2974,-2.07432 1.2107,2.32669 1.0867,-0.25237 z"
       id="path4272-40" />
    <path
       inkscape:connector-curvature="0"
       style="fill:#000000;stroke:#000000;stroke-width:1px;stroke-linecap:butt;stroke-linejoin:miter;stroke-opacity:0"
       d="m 209.08036,256.03855 -3.0682,0.90067 2.7543,0.11514 0.3139,-1.01581 z"
       id="path4272-63" />
    <path
       inkscape:connector-curvature="0"
       style="fill:#000000;stroke:#000000;stroke-width:1px;stroke-linecap:butt;stroke-linejoin:miter;stroke-opacity:0"
       d="m 208.41116,258.74119 -3.0682,0.90067 2.7543,0.11514 0.3139,-1.01581 z"
       id="path4272-42" />
    <path
       inkscape:connector-curvature="0"
       style="fill:#000000;stroke:#000000;stroke-width:1px;stroke-linecap:butt;stroke-linejoin:miter;stroke-opacity:0"
       d="m 208.28196,261.50598 -3.0681,0.90067 2.7543,0.11514 0.3138,-1.01581 z"
       id="path4272-372" />
    <path
       inkscape:connector-curvature="0"
       style="fill:none;stroke:#000000;stroke-width:1px;stroke-linecap:butt;stroke-linejoin:miter;stroke-opacity:1"
       d="m 211.97626,274.83859 c 1.6057,1.63692 3.7708,2.90163 5.9073,3.25458"
       id="path4449"
       sodipodi:nodetypes="cc" />
    <path
       inkscape:connector-curvature="0"
       style="fill:none;stroke:#000000;stroke-width:1px;stroke-linecap:butt;stroke-linejoin:miter;stroke-opacity:1"
       d="m 220.67356,295.89943 c 1.5313,-1.08148 2.9628,-0.54987 4.3184,1.20945 l -0.1669,-0.007"
       id="path4451"
       sodipodi:nodetypes="ccc" />
    <path
       style="fill:none;stroke:#efefef;stroke-width:0.6;stroke-linecap:butt;stroke-linejoin:miter;stroke-opacity:1;stroke-miterlimit:4;stroke-dasharray:none"
       d="M 85.948661,43.34402 C 83.987308,42.539376 78.905437,42.544982 73.214286,42.596252 57.736985,42.429949 59.315312,31.155578 63.339348,29.179457 c 2.050575,-1.006994 5.125404,-0.611969 7.821367,2.256081 -5.909874,3.329283 -4.330262,8.256368 3.125,8.348214 7.088237,-0.24799 11.303376,1.22238 12.282366,1.473214"
       id="path3997"
       inkscape:connector-curvature="0"
       transform="translate(81,198)"
       sodipodi:nodetypes="ccsccc" />
  </g>
</svg>
