<svg xmlns="http://www.w3.org/2000/svg" viewBox="0 0 200 240">
  <!-- Crown -->
  <rect x="43" y="0" width="18" height="14" rx="3" fill="#D4AF37"/>
  <rect x="91" y="0" width="18" height="14" rx="3" fill="#D4AF37"/>
  <rect x="139" y="0" width="18" height="14" rx="3" fill="#D4AF37"/>
  <rect x="38" y="10" width="124" height="12" rx="2" fill="#D4AF37"/>
  <!-- Shield: red field -->
  <path d="M20,20 H180 V170 Q180,210 100,232 Q20,210 20,170 Z" fill="#B5121B" stroke="#5C3800" stroke-width="2.5"/>
  <!-- Castle tower -->
  <!-- Main tower -->
  <rect x="72" y="80" width="56" height="90" rx="3" fill="#D4AF37"/>
  <!-- Tower battlements -->
  <rect x="68" y="66" width="14" height="18" rx="2" fill="#D4AF37"/>
  <rect x="86" y="66" width="14" height="18" rx="2" fill="#D4AF37"/>
  <rect x="104" y="66" width="14" height="18" rx="2" fill="#D4AF37"/>
  <rect x="122" y="66" width="14" height="18" rx="2" fill="#D4AF37"/>
  <!-- Gate arch -->
  <path d="M88,170 L88,130 Q100,112 112,130 L112,170 Z" fill="#B5121B"/>
  <!-- Windows -->
  <rect x="74" y="94" width="12" height="16" rx="2" fill="#B5121B"/>
  <rect x="114" y="94" width="12" height="16" rx="2" fill="#B5121B"/>
  <!-- Flanking towers -->
  <rect x="42" y="106" width="32" height="64" rx="3" fill="#D4AF37"/>
  <rect x="126" y="106" width="32" height="64" rx="3" fill="#D4AF37"/>
  <!-- Shield border -->
  <path d="M20,20 H180 V170 Q180,210 100,232 Q20,210 20,170 Z" fill="none" stroke="#8B6914" stroke-width="2.5"/>
</svg>
